<?xml version="1.0" encoding="utf-8"?>
<!-- Generator: Adobe Illustrator 27.2.0, SVG Export Plug-In . SVG Version: 6.00 Build 0)  -->
<svg version="1.1" id="Layer_1" xmlns="http://www.w3.org/2000/svg" xmlns:xlink="http://www.w3.org/1999/xlink" x="0px" y="0px"
	 viewBox="0 0 900 900" style="enable-background:new 0 0 900 900;" xml:space="preserve">
<style type="text/css">
	.st0{fill:#F8FBFF;}
	.st1{fill:#EDF0F4;}
	.st2{enable-background:new    ;}
</style>
<rect class="st0" width="900" height="900"/>
<path class="st1" d="M450.5,195c-74.3,0-134.7,60.4-134.7,134.7s60.4,134.7,134.7,134.7S585.2,404,585.2,329.7S524.8,195,450.5,195z
	"/>
<path class="st1" d="M618.1,552.5c-36.9-37.5-85.8-58.1-137.7-58.1h-59.9c-51.9,0-100.8,20.6-137.7,58.1
	c-36.7,37.3-56.9,86.5-56.9,138.5c0,8.3,6.7,15,15,15h419.2c8.3,0,15-6.7,15-15C675.1,639,654.8,589.8,618.1,552.5z"/>
<g class="st2">
	<path d="M310.1,597.1h-92.5V323.9h71.6c22.6,0,40.2,3,52.8,9.1c12.6,6.1,22.3,14.4,28.9,25s10,22.9,10,36.9
		c0,26.9-13.9,46.1-41.7,57.7c19.9,3.8,35.8,12,47.6,24.6c11.8,12.7,17.7,27.8,17.7,45.4c0,14-3.6,26.4-10.8,37.4
		s-17.7,19.9-31.6,26.8C348.3,593.6,330.9,597.1,310.1,597.1z M290.3,358.7h-33.6v82.1h26c20.9,0,35.7-4,44.5-11.9
		c8.8-8,13.2-18.3,13.2-30.9C340.4,371.8,323.7,358.7,290.3,358.7z M293.3,475.6h-36.6v86.6h38.5c21.4,0,35.9-1.7,43.5-5
		s13.8-8.5,18.4-15.5s6.9-14.6,6.9-22.7c0-8.3-2.4-16-7.3-22.9s-11.8-12.1-20.8-15.4C326.9,477.3,312.7,475.6,293.3,475.6z"/>
	<path d="M590.7,462.5h91.7v115.8c-33.6,14.6-67,21.9-100.1,21.9c-45.2,0-81.4-13.2-108.4-39.6c-27.1-26.4-40.6-59-40.6-97.7
		c0-40.8,14-74.8,42-101.9s63.2-40.7,105.4-40.7c15.4,0,30,1.7,43.8,5s31.3,9.4,52.4,18.3v39.9c-32.6-18.9-64.9-28.4-97-28.4
		c-29.9,0-55,10.2-75.5,30.5c-20.4,20.4-30.6,45.4-30.6,75c0,31,10.2,56.4,30.7,76.1s46.8,29.5,79,29.5c15.6,0,34.4-3.6,56.1-10.8
		l3.7-1.2v-56.9h-52.6V462.5z"/>
</g>
</svg>
