<?xml version="1.0" encoding="utf-8"?>
<!-- Generator: Adobe Illustrator 27.2.0, SVG Export Plug-In . SVG Version: 6.00 Build 0)  -->
<svg version="1.1" id="Layer_1" xmlns="http://www.w3.org/2000/svg" xmlns:xlink="http://www.w3.org/1999/xlink" x="0px" y="0px"
	 viewBox="0 0 900 900" style="enable-background:new 0 0 900 900;" xml:space="preserve">
<style type="text/css">
	.st0{fill:#F8FBFF;}
	.st1{fill:#DCE5F1;}
	.st2{enable-background:new    ;}
</style>
<rect x="6" class="st0" width="900" height="900"/>
<path class="st1" d="M450.5,195c-74.3,0-134.7,60.4-134.7,134.7s60.4,134.7,134.7,134.7S585.2,404,585.2,329.7S524.8,195,450.5,195z
	"/>
<path class="st1" d="M618.1,552.5c-36.9-37.5-85.8-58.1-137.7-58.1h-59.9c-51.9,0-100.8,20.6-137.7,58.1
	c-36.7,37.3-56.9,86.5-56.9,138.5c0,8.3,6.7,15,15,15h419.2c8.3,0,15-6.7,15-15C675.1,639,654.8,589.8,618.1,552.5z"/>
<g class="st2">
	<path d="M397.5,674h-40.4V554.6h31.3c9.9,0,17.5,1.3,23.1,4c5.5,2.6,9.7,6.3,12.6,10.9c2.9,4.6,4.4,10,4.4,16.1
		c0,11.7-6.1,20.1-18.2,25.2c8.7,1.7,15.7,5.2,20.8,10.8c5.2,5.5,7.7,12.1,7.7,19.8c0,6.1-1.6,11.5-4.7,16.3s-7.7,8.7-13.8,11.7
		C414.2,672.5,406.7,674,397.5,674z M388.9,569.8h-14.7v35.9h11.4c9.1,0,15.6-1.7,19.4-5.2c3.8-3.5,5.8-8,5.8-13.5
		C410.8,575.6,403.5,569.8,388.9,569.8z M390.2,620.9h-16v37.9H391c9.3,0,15.7-0.7,19-2.2c3.3-1.5,6-3.7,8-6.8c2-3.1,3-6.4,3-9.9
		c0-3.6-1.1-7-3.2-10c-2.1-3-5.2-5.3-9.1-6.8C404.9,621.7,398.7,620.9,390.2,620.9z"/>
	<path d="M520.2,615.2h40.1v50.6c-14.7,6.4-29.3,9.6-43.8,9.6c-19.8,0-35.6-5.8-47.4-17.3c-11.8-11.5-17.7-25.8-17.7-42.7
		c0-17.8,6.1-32.7,18.4-44.5c12.2-11.8,27.6-17.8,46.1-17.8c6.7,0,13.1,0.7,19.1,2.2c6,1.5,13.7,4.1,22.9,8v17.4
		c-14.2-8.3-28.4-12.4-42.4-12.4c-13,0-24,4.4-33,13.3c-8.9,8.9-13.4,19.8-13.4,32.7c0,13.6,4.5,24.6,13.4,33.2
		c8.9,8.6,20.5,12.9,34.5,12.9c6.8,0,15-1.6,24.5-4.7l1.6-0.5v-24.9h-23V615.2z"/>
</g>
</svg>
