<?xml version="1.0" encoding="utf-8"?>
<!-- Generator: Adobe Illustrator 27.4.0, SVG Export Plug-In . SVG Version: 6.00 Build 0)  -->
<svg version="1.1" id="Layer_1" xmlns="http://www.w3.org/2000/svg" xmlns:xlink="http://www.w3.org/1999/xlink" x="0px" y="0px"
	 viewBox="0 0 81 82.2" style="enable-background:new 0 0 81 82.2;" xml:space="preserve">
<style type="text/css">
	.st0{fill:#287E5F;}
</style>
<g>
	<path class="st0" d="M61,2.5H13.8c-0.8,0-1.6,0.5-1.9,1.3L2.4,32.5v38c0,1.1,0.9,2,2,2h40.3c1.7,0,3-1.3,3-3c0-0.1,0-0.2,0-0.3
		c-0.3-2.6,0-5.2,0.9-7.7c2-5.9,6.8-10.4,12.7-12c2.5-0.7,5.1-0.8,7.6-0.5c1.6,0.3,3.2-0.9,3.4-2.5c0-0.2,0-0.3,0-0.5V32.5L62.9,3.8
		C62.6,3,61.8,2.4,61,2.5z M52.4,47.5c0,2.8-2.2,5-5,5h-20c-2.8,0-5-2.2-5-5l0,0c0-2.8,2.2-5,5-5h20C50.2,42.5,52.4,44.7,52.4,47.5z
		 M65.4,28.5H9.3c-0.6,0-1-0.4-1-1c0-0.1,0-0.2,0.1-0.3l6.6-20c0.1-0.4,0.5-0.7,1-0.7h42.8c0.4,0,0.8,0.3,0.9,0.7l6.6,20
		c0.2,0.5-0.1,1.1-0.6,1.3C65.7,28.4,65.6,28.5,65.4,28.5L65.4,28.5z"/>
	<path class="st0" d="M53.7,67.4c0,6.9,5.6,12.4,12.4,12.4c6.9,0,12.4-5.6,12.4-12.4S73,54.9,66.2,54.9c0,0,0,0,0,0
		C59.3,54.9,53.7,60.5,53.7,67.4z M68,61.6v3c0,0.6,0.4,1,1,1h3c0.6,0,1,0.4,1,1v1.6c0,0.6-0.4,1-1,1h-3c-0.6,0-1,0.4-1,1v3
		c0,0.6-0.4,1-1,1h-1.6c-0.6,0-1-0.4-1-1v-3c0-0.6-0.4-1-1-1h-3c-0.6,0-1-0.4-1-1v-1.6c0-0.6,0.4-1,1-1h3c0.6,0,1-0.4,1-1v-3
		c0-0.6,0.4-1,1-1H67C67.5,60.5,68,61,68,61.6C68,61.6,68,61.6,68,61.6z"/>
</g>
</svg>
