<?xml version="1.0" ?><!DOCTYPE svg  PUBLIC '-//W3C//DTD SVG 1.1//EN'  'http://www.w3.org/Graphics/SVG/1.1/DTD/svg11.dtd'><svg enable-background="new 0 0 128 128" height="128px" id="Layer_1" version="1.1" viewBox="0 0 128 128" width="128px" xml:space="preserve" xmlns="http://www.w3.org/2000/svg" xmlns:xlink="http://www.w3.org/1999/xlink"><g><path d="M127.359,65.311c0.854-0.722,0.854-1.896,0-2.618l-8.111-6.851c-0.854-0.72-1.1-2.101-0.541-3.069l5.279-9.213   c0.554-0.968,0.154-2.075-0.896-2.46l-9.969-3.662c-1.047-0.385-1.75-1.599-1.562-2.699l1.812-10.463   c0.188-1.099-0.569-2.002-1.684-2.005l-10.617-0.032c-1.119-0.003-2.194-0.905-2.391-2.003L96.807,9.784   c-0.201-1.099-1.219-1.687-2.27-1.309l-9.986,3.602c-1.051,0.379-2.367-0.1-2.93-1.065l-5.337-9.181   c-0.562-0.965-1.724-1.17-2.576-0.455l-8.153,6.802c-0.859,0.715-2.263,0.715-3.119,0l-8.152-6.801   c-0.858-0.714-2.017-0.51-2.578,0.455l-5.336,9.181c-0.562,0.964-1.878,1.443-2.929,1.065l-9.989-3.602   c-1.049-0.379-2.07,0.21-2.266,1.309l-1.877,10.452c-0.197,1.098-1.27,2-2.386,2.003l-10.619,0.032   c-1.116,0.003-1.873,0.905-1.682,2.005l1.812,10.463c0.19,1.1-0.512,2.314-1.559,2.699l-9.967,3.662   c-1.048,0.384-1.45,1.491-0.896,2.459l5.282,9.212c0.554,0.967,0.312,2.348-0.542,3.068L0.64,62.69   c-0.854,0.724-0.854,1.896,0,2.621l8.112,6.852c0.853,0.713,1.097,2.094,0.542,3.064l-5.283,9.215   C3.458,85.41,3.86,86.516,4.907,86.9l9.966,3.662c1.047,0.386,1.748,1.598,1.559,2.695l-1.813,10.469   c-0.191,1.104,0.567,2,1.682,2.004l10.619,0.027c1.115,0.006,2.191,0.904,2.386,2.006l1.877,10.449   c0.197,1.102,1.217,1.688,2.266,1.312l9.989-3.604c1.051-0.379,2.367,0.1,2.929,1.062l5.336,9.182   c0.56,0.965,1.721,1.17,2.578,0.455l8.155-6.799c0.857-0.719,2.261-0.719,3.115-0.004l8.157,6.805   c0.854,0.713,2.015,0.508,2.576-0.455l5.337-9.186c0.562-0.961,1.879-1.439,2.928-1.062l9.988,3.603   c1.051,0.379,2.074-0.209,2.27-1.31l1.877-10.452c0.201-1.101,1.274-2,2.392-2.005l10.612-0.028   c1.125-0.004,1.875-0.899,1.688-2.004l-1.812-10.468c-0.188-1.094,0.516-2.309,1.562-2.696l9.969-3.662   c1.049-0.385,1.452-1.485,0.896-2.459l-5.279-9.215c-0.559-0.961-0.312-2.345,0.541-3.062L127.359,65.311z M43.781,83.148   l-10.054-12.15l-3.961-5.4l-0.168,0.035c0.462,1.484,0.969,3.078,1.521,4.777c0.552,1.699,1.001,3.361,1.347,4.988l2.064,9.716   l-5.888,1.252l-5.829-27.424l6.35-1.351l10.046,12.11l3.979,5.482l0.168-0.035c-0.451-1.429-0.958-3.021-1.521-4.775   c-0.563-1.756-1.018-3.447-1.364-5.074l-2.056-9.674l5.888-1.252l5.829,27.424L43.781,83.148z M56.608,80.422L50.78,52.997   l17.158-3.647l1.108,5.216L58.07,56.899l1.171,5.51l9.336-1.984l1.099,5.175l-9.335,1.983l1.341,6.31l11.397-2.424l1.108,5.217   L56.608,80.422z M97.406,71.75l-5.34-11.877c-0.449-1.019-0.883-2.048-1.295-3.089s-0.795-2.052-1.146-3.03l-0.17,0.035   c0.047,1.045,0.094,2.127,0.143,3.246c0.047,1.118,0.07,2.233,0.072,3.348l0.08,12.994l-7.652,1.627L71.177,48.661l6.353-1.351   l4.619,12.428c0.474,1.394,0.959,2.792,1.463,4.194c0.502,1.402,0.994,2.815,1.474,4.237l0.168-0.036   c-0.028-1.517-0.063-3.027-0.104-4.528c-0.041-1.5-0.07-2.995-0.097-4.484l0.218-13.455l5.258-1.117L96.2,56.752   c0.575,1.343,1.151,2.707,1.726,4.094c0.572,1.388,1.158,2.796,1.754,4.222l0.17-0.036c-0.119-1.526-0.24-3.026-0.361-4.494   c-0.12-1.469-0.235-2.939-0.344-4.411l-0.834-13.231l5.931-1.261l0.95,28.463L97.406,71.75z"/></g></svg>