<?xml version="1.0" ?><!DOCTYPE svg  PUBLIC '-//W3C//DTD SVG 1.1//EN'  'http://www.w3.org/Graphics/SVG/1.1/DTD/svg11.dtd'><svg enable-background="new 0 0 256 256" height="256px" id="Layer_1" version="1.1" viewBox="0 0 256 256" width="256px" xml:space="preserve" xmlns="http://www.w3.org/2000/svg" xmlns:xlink="http://www.w3.org/1999/xlink"><g><path clip-rule="evenodd" d="M179.772,217.671l-14.632,34.823    c-1.79,2.62-5.372,3.294-7.994,1.506l-32.957-22.505l-30.123,20.828l-0.07,0.051c-2.959,2.046-7.08,0.777-8.486-2.546    l-15.538-36.715l-37.784,1.191c-3.134-0.533-5.24-3.505-4.707-6.635l6.811-39.309L1.857,148.962    c-2.337-2.149-2.489-5.785-0.337-8.119l26.976-29.352L12.139,78.746l0.008-0.003c-1.619-3.245,0.152-7.187,3.684-8.115    l38.604-10.136l4.212-37.525c0.982-3.017,4.229-4.668,7.25-3.687l37.961,12.316L127.707,2.3c2.461-2.012,6.092-1.649,8.105,0.809    l25.264,30.851l34.781-11.506l0.001,0.003c3.425-1.119,7.109,1.209,7.52,4.81l4.552,39.61l36.569,9.495    c2.848,1.391,4.027,4.826,2.635,7.669l-17.613,35.779l25.651,27.758c1.641,2.719,0.764,6.253-1.959,7.892l-34.188,20.59    l6.541,37.172c-0.086,3.166-2.729,5.662-5.899,5.575L179.772,217.671L179.772,217.671z M107.197,158.548l-12.553,3.359    c-0.74,0.199-1.478-0.018-1.995-0.582l-23.656-25.877l-0.269,0.071c1.695,4.792,2.881,8.471,3.572,11.048l4.819,17.963    c0.286,1.063-0.35,2.161-1.414,2.446l-6.71,1.795c-1.064,0.285-2.164-0.349-2.449-1.412l-10.806-40.275    c-0.285-1.063,0.35-2.161,1.414-2.446l12.497-3.344c0.737-0.197,1.472,0.016,1.989,0.576l23.481,25.478l0.186-0.049    c-1.483-4.374-2.574-7.902-3.298-10.601l-4.836-18.026c-0.285-1.062,0.35-2.161,1.414-2.446l6.772-1.812    c1.064-0.285,2.164,0.35,2.449,1.412l10.806,40.276C108.897,157.166,108.262,158.264,107.197,158.548L107.197,158.548z     M142.993,148.97l-22.38,5.989c-1.064,0.285-2.164-0.35-2.449-1.413l-10.807-40.275c-0.285-1.062,0.351-2.161,1.415-2.446    l22.379-5.988c1.064-0.285,2.165,0.35,2.45,1.412l1.535,5.722c0.285,1.063-0.35,2.162-1.414,2.447l-12.376,3.311l1.858,6.923    l11.314-3.027c1.064-0.286,2.164,0.349,2.449,1.412l1.536,5.722c0.285,1.063-0.35,2.162-1.414,2.447l-11.314,3.027l2.238,8.345    l12.376-3.312c1.064-0.285,2.164,0.349,2.449,1.412l1.569,5.846C144.692,147.587,144.057,148.685,142.993,148.97L142.993,148.97z     M198.848,134.024l-11.044,2.956c-0.918,0.245-1.856-0.17-2.293-1.011l-8.65-16.676c-0.411-0.751-1.16-2.263-2.237-4.547    c-1.075-2.274-1.931-4.187-2.561-5.752c0.186,1.353,0.365,3.05,0.526,5.093c0.148,2.036,0.276,3.913,0.365,5.645    c0.082,1.644,0.356,8.108,0.848,19.374c0.042,0.946-0.564,1.771-1.48,2.017l-11.06,2.959c-0.9,0.241-1.819-0.15-2.268-0.964    l-20.785-37.606c-0.308-0.556-0.338-1.162-0.09-1.747c0.249-0.584,0.709-0.982,1.323-1.147l9.045-2.421l10.745,20.842    c2.396,4.603,4.193,8.296,5.373,11.083c-0.292-2.118-0.577-5.034-0.842-8.74c-0.275-3.702-0.428-6.786-0.462-9.261l-0.526-16.149    c-0.031-0.939,0.572-1.751,1.481-1.994l7.982-2.136c0.913-0.244,1.848,0.164,2.288,1l7.509,14.267    c1.369,2.504,2.848,5.42,4.448,8.747c1.61,3.323,2.756,5.821,3.437,7.494c-0.332-2.307-0.659-6.371-0.972-12.195l-0.982-21.899    c-0.043-0.946,0.563-1.773,1.48-2.018l7.495-2.006c0.614-0.164,1.211-0.049,1.719,0.333c0.508,0.381,0.785,0.922,0.798,1.556    l0.874,42.933C200.349,132.985,199.749,133.783,198.848,134.024L198.848,134.024z" fill="#2B79C2" fill-rule="evenodd"/></g></svg>