<?xml version="1.0" encoding="utf-8"?>
<!-- Generator: Adobe Illustrator 27.4.0, SVG Export Plug-In . SVG Version: 6.00 Build 0)  -->
<svg version="1.1" id="Layer_1" xmlns="http://www.w3.org/2000/svg" xmlns:xlink="http://www.w3.org/1999/xlink" x="0px" y="0px"
	 viewBox="0 0 512 512" style="enable-background:new 0 0 512 512;" xml:space="preserve">
<style type="text/css">
	.st0{fill:#287E5F;}
</style>
<path class="st0" d="M100,100V52c0-13.2,10.8-24,24-24s24,10.8,24,24v48c0,13.2-10.8,24-24,24S100,113.2,100,100z M496,124v312
	c0,26.4-21.6,48-48,48H64c-26.4,0-48-21.6-48-48V124c0-26.4,21.6-48,48-48h12v24c0,26.5,21.5,48,48,48s48-21.5,48-48V76h168v24
	c0,26.5,21.5,48,48,48s48-21.5,48-48V76h12C474.4,76,496,97.6,496,124z M448,196H64v240h384V196z M388,124c13.2,0,24-10.8,24-24V52
	c0-13.2-10.8-24-24-24s-24,10.8-24,24v48C364,113.2,374.8,124,388,124z M100,268h24c6.6,0,12-5.4,12-12v-24c0-6.6-5.4-12-12-12h-24
	c-6.6,0-12,5.4-12,12v24C88,262.6,93.4,268,100,268z M100,340h24c6.6,0,12-5.4,12-12v-24c0-6.6-5.4-12-12-12h-24
	c-6.6,0-12,5.4-12,12v24C88,334.6,93.4,340,100,340z M100,412h24c6.6,0,12-5.4,12-12v-24c0-6.6-5.4-12-12-12h-24
	c-6.6,0-12,5.4-12,12v24C88,406.6,93.4,412,100,412z M172,340h24c6.6,0,12-5.4,12-12v-24c0-6.6-5.4-12-12-12h-24
	c-6.6,0-12,5.4-12,12v24C160,334.6,165.4,340,172,340z M172,412h24c6.6,0,12-5.4,12-12v-24c0-6.6-5.4-12-12-12h-24
	c-6.6,0-12,5.4-12,12v24C160,406.6,165.4,412,172,412z M244,268h24c6.6,0,12-5.4,12-12v-24c0-6.6-5.4-12-12-12h-24
	c-6.6,0-12,5.4-12,12v24C232,262.6,237.4,268,244,268z M244,340h24c6.6,0,12-5.4,12-12v-24c0-6.6-5.4-12-12-12h-24
	c-6.6,0-12,5.4-12,12v24C232,334.6,237.4,340,244,340z M244,412h24c6.6,0,12-5.4,12-12v-24c0-6.6-5.4-12-12-12h-24
	c-6.6,0-12,5.4-12,12v24C232,406.6,237.4,412,244,412z M316,268h24c6.6,0,12-5.4,12-12v-24c0-6.6-5.4-12-12-12h-24
	c-6.6,0-12,5.4-12,12v24C304,262.6,309.4,268,316,268z M316,340h24c6.6,0,12-5.4,12-12v-24c0-6.6-5.4-12-12-12h-24
	c-6.6,0-12,5.4-12,12v24C304,334.6,309.4,340,316,340z M316,412h24c6.6,0,12-5.4,12-12v-24c0-6.6-5.4-12-12-12h-24
	c-6.6,0-12,5.4-12,12v24C304,406.6,309.4,412,316,412z M388,268h24c6.6,0,12-5.4,12-12v-24c0-6.6-5.4-12-12-12h-24
	c-6.6,0-12,5.4-12,12v24C376,262.6,381.4,268,388,268z M388,340h24c6.6,0,12-5.4,12-12v-24c0-6.6-5.4-12-12-12h-24
	c-6.6,0-12,5.4-12,12v24C376,334.6,381.4,340,388,340z M388,412h24c6.6,0,12-5.4,12-12v-24c0-6.6-5.4-12-12-12h-24
	c-6.6,0-12,5.4-12,12v24C376,406.6,381.4,412,388,412z"/>
</svg>
