<?xml version="1.0" encoding="utf-8"?>
<!-- Generator: Adobe Illustrator 27.4.1, SVG Export Plug-In . SVG Version: 6.00 Build 0)  -->
<svg version="1.1" id="Layer_1" xmlns="http://www.w3.org/2000/svg" xmlns:xlink="http://www.w3.org/1999/xlink" x="0px" y="0px"
	 viewBox="0 0 222.7 222.7" style="enable-background:new 0 0 222.7 222.7;" xml:space="preserve">
<style type="text/css">
	.st0{fill-rule:evenodd;clip-rule:evenodd;fill:#E1E3E8;}
	.st1{fill-rule:evenodd;clip-rule:evenodd;fill:#FFC42E;}
	.st2{fill-rule:evenodd;clip-rule:evenodd;fill:#FAAA20;}
	.st3{fill-rule:evenodd;clip-rule:evenodd;fill:#EB9D17;}
	.st4{fill-rule:evenodd;clip-rule:evenodd;fill:#FFFFFF;}
	.st5{fill-rule:evenodd;clip-rule:evenodd;fill:#ECF0F1;}
	.st6{fill-rule:evenodd;clip-rule:evenodd;fill:#FFD557;}
	.st7{fill:#B3BECC;}
	.st8{fill-rule:evenodd;clip-rule:evenodd;fill:#73C695;}
	.st9{fill-rule:evenodd;clip-rule:evenodd;fill:#45B372;}
	.st10{fill-rule:evenodd;clip-rule:evenodd;fill:#16A04F;}
	.st11{fill-rule:evenodd;clip-rule:evenodd;fill:#A2D9B9;}
</style>
<g id="Layer_2_00000031924151204163671080000006279576380621380005_">
</g>
<g>
	<g id="Layer_x0020_1">
		<g id="_250105400">
			<circle class="st0" cx="111.4" cy="111.4" r="67.6"/>
			<g>
				<path class="st1" d="M124,77.4h45.8c0.7,1.1,1.1,2,1.5,3.1h-49.5l-8.5-15c-2.2-3.9-3.9-4.8-8.1-4.8h-40c-4.1,0-7.6,3.5-7.6,7.6
					v-2.8c0-4.4,3.5-7.8,7.6-7.8h41.2c4.1,0,7.8,2.4,10.5,7L124,77.4z"/>
				<path class="st2" d="M121.9,79.8h49.3c5,9.6,7.8,20.3,7.8,31.6c0,37.3-30.3,67.6-67.6,67.6c-22,0-41.4-10.5-53.8-26.8V79.8v-12
					c0-4.1,3.5-7.6,7.6-7.6h40.1c4.1,0,5.9,0.9,8.1,4.8L121.9,79.8z"/>
				<polygon class="st3" points="72.4,99 57.6,99 57.6,103.1 72.4,103.1 				"/>
				<path class="st1" d="M57.6,103.1h121c0.2,2.6,0.4,5.4,0.4,8.3c0,37.3-30.3,67.6-67.6,67.6c-22,0-41.4-10.5-53.8-26.8
					C57.6,152.2,57.6,103.1,57.6,103.1z"/>
				<path class="st4" d="M72.4,86.1h101.8c2.4,5.9,3.9,12.4,4.6,19H72.4V86.1z"/>
				<path class="st5" d="M72.4,99h105.5c0.2,1.3,0.4,2.6,0.7,4.1H72.4V99z"/>
				<path class="st6" d="M57.6,103.1h121c0,0.9,0.2,1.7,0.2,2.6H57.6V103.1z"/>
				<path class="st7" d="M83.5,92.9h92.8c0.2,0.4,0.2,0.9,0.4,1.3H83.5V92.9z"/>
				<path class="st7" d="M83.5,99h94.4c0,0.4,0.2,0.9,0.2,1.3H83.5V99z"/>
			</g>
		</g>
	</g>
	<path class="st8" d="M179.7,110.6c3.6-3.6,7.7-7.6,9.6-9.6c3.4-3.4,8.9-3.4,12.3,0c1.9,1.9,5.9,5.9,9.6,9.5c0,0.2,0,0.5,0,0.7
		c0,55.2-44.8,100-100,100c-0.8,0-1.5,0-2.3,0c-0.1-8.8-0.1-20-0.1-31.6c0.8,0,1.6,0,2.4,0c37.8,0,68.4-30.7,68.4-68.4
		C179.7,111.1,179.7,110.9,179.7,110.6z"/>
	<path class="st9" d="M44.2,98.1c-0.8,4.3-1.3,8.7-1.3,13.3c0,37.8,30.7,68.4,68.4,68.4c0.2,0,0.5,0,0.7,0c3.7,3.7,7.7,7.7,9.6,9.6
		c3.4,3.4,3.4,8.9,0,12.3c-1.7,1.7-5.6,5.7-9.6,9.6c-0.2,0-0.5,0-0.7,0c-55.2,0-100-44.8-100-100c0-4.5,0.3-8.9,0.9-13.2
		C21.5,98.1,32.8,98.1,44.2,98.1z"/>
	<path class="st10" d="M11.4,112.1c0-0.2,0-0.5,0-0.7c0-55.2,44.8-100,100-100c7.5,0,14.8,0.8,21.9,2.4c0,10.3,0,21.7,0,32.8
		c-6.9-2.3-14.3-3.6-21.9-3.6C73.6,43,43,73.7,43,111.4c0,0.2,0,0.5,0,0.7c-4.1,4.1-8,8-9.6,9.6c-3.4,3.4-8.9,3.4-12.3,0
		C21,121.6,11.4,112.1,11.4,112.1z"/>
	<path class="st11" d="M110.7,11.4c0.2,0,0.4,0,0.7,0c55.2,0,100,44.8,100,100c0,1.8-0.1,5.5-0.1,5.5l-31.6-0.3c0,0,0.2-3.5,0.2-5.2
		c0-37.8-30.7-68.4-68.4-68.4c-0.2,0-0.4,0-0.7,0c-4.2-4.2-8-8.1-9.6-9.6c-3.4-3.4-3.4-8.9,0-12.3C102.6,19.5,106.4,15.6,110.7,11.4
		z"/>
</g>
</svg>
