<?xml version="1.0" encoding="utf-8"?>
<!-- Generator: Adobe Illustrator 27.4.0, SVG Export Plug-In . SVG Version: 6.00 Build 0)  -->
<svg version="1.1" id="Layer_1" xmlns="http://www.w3.org/2000/svg" xmlns:xlink="http://www.w3.org/1999/xlink" x="0px" y="0px"
	 viewBox="0 0 24 24" style="enable-background:new 0 0 24 24;" xml:space="preserve">
<style type="text/css">
	.st0{fill:#287E5F;}
</style>
<path class="st0" d="M14.8,10c1,0,1.8,0.8,1.8,1.8v4.7c0,2.5-2,4.5-4.5,4.5c-2.5,0-4.5-2-4.5-4.5v-4.7c0-1,0.8-1.8,1.8-1.8H14.8z
	 M7.1,10c-0.3,0.4-0.6,1-0.6,1.5l0,0.2v4.7c0,0.8,0.2,1.6,0.5,2.4C6.7,19,6.4,19,6,19c-2.2,0-4-1.8-4-4v-3.2c0-0.9,0.7-1.7,1.6-1.7
	l0.1,0L7.1,10z M16.9,10l3.4,0c1,0,1.8,0.8,1.8,1.8V15c0,2.2-1.8,4-4,4c-0.4,0-0.7,0-1-0.1c0.3-0.6,0.5-1.3,0.5-2.1l0-0.3v-4.7
	C17.5,11.1,17.3,10.5,16.9,10z M12,3c1.7,0,3,1.3,3,3s-1.3,3-3,3S9,7.7,9,6S10.3,3,12,3z M18.5,4C19.9,4,21,5.1,21,6.5
	S19.9,9,18.5,9S16,7.9,16,6.5S17.1,4,18.5,4z M5.5,4C6.9,4,8,5.1,8,6.5S6.9,9,5.5,9S3,7.9,3,6.5S4.1,4,5.5,4z"/>
</svg>
