<?xml version="1.0" encoding="utf-8"?>
<!-- Generator: Adobe Illustrator 27.7.0, SVG Export Plug-In . SVG Version: 6.00 Build 0)  -->
<svg version="1.1" id="Layer_1" xmlns="http://www.w3.org/2000/svg" xmlns:xlink="http://www.w3.org/1999/xlink" x="0px" y="0px"
	 viewBox="0 0 1560.2 1114.4" style="enable-background:new 0 0 1560.2 1114.4;" xml:space="preserve">
<style type="text/css">
	.st0{fill:none;}
	.st1{fill-rule:evenodd;clip-rule:evenodd;fill:#287E5F;}
</style>
<rect x="-243.9" y="-466.8" class="st0" width="2048" height="2048"/>
<rect x="12.1" y="-210.8" class="st0" width="1536" height="1536"/>
<rect x="12.1" y="-210.8" class="st0" width="1536" height="1536"/>
<rect id="_561089512" x="12.1" y="-210.8" class="st0" width="1536" height="1536"/>
<g>
	<path id="_561089344" class="st1" d="M775.2,21.9C669.1,21.9,583,108.6,583,214.8c0,106.1,86.2,192.7,192.3,192.7
		c106.2,0,192.8-86.6,192.8-192.7C968,108.6,881.4,21.9,775.2,21.9L775.2,21.9z"/>
	<path id="_561089176" class="st1" d="M406.6,265.5c-71.7,0-130.4,58.6-130.4,130.4c0,71.6,58.7,130.3,130.4,130.3
		c71.6,0,130.3-58.7,130.3-130.3C536.8,324.1,478.2,265.5,406.6,265.5z"/>
	<path id="_561089008" class="st1" d="M1144.4,265.5c-72.1,0-130.4,58.6-130.4,130.4c0,71.6,58.3,130.3,130.4,130.3
		c71.8,0,130.4-58.7,130.4-130.3C1274.8,324.1,1216.2,265.5,1144.4,265.5z"/>
	<path id="_207598248" class="st1" d="M146.2,369.1c-48.4,0-87.5,39.1-87.5,87.5c0,48.5,39.1,87.6,87.5,87.6
		c48.4,0,87.5-39.1,87.5-87.6C233.7,408.2,194.6,369.1,146.2,369.1z"/>
	<path id="_207598080" class="st1" d="M150.9,836.7c-52.4-49.5-99-105-138.8-165.3c20.9-53.8,73.3-92.1,134.2-92.1
		c14.4,0,27.5,2.7,40.5,6.4c-22.4,37.8-35.8,81.5-35.8,128.5V836.7L150.9,836.7z"/>
	<path id="_207597912" class="st1" d="M425.6,1017.2c-82.5-35.3-158.9-82.1-227.2-138.5V753.4c0-114.9,93.6-208.1,208.6-208.1
		c20.4,0,39.6,3.8,58.2,9.3c-24.2,47.5-39.6,101.1-39.6,157.9L425.6,1017.2L425.6,1017.2z"/>
	<path id="_207597744" class="st1" d="M1077.5,1048.8c-89.4,28.4-184.6,43.7-283.4,43.7c-112.6,0-220.5-19.9-320.5-56.3V747.3
		c0-166.3,135-301.8,301.7-301.8c166.7,0,302.3,135.5,302.3,301.8V1048.8L1077.5,1048.8z"/>
	<path id="_207597576" class="st1" d="M1352.5,907.8c-69,51.4-145.4,93.4-227.2,124.4V795.2c0-56.8-15.4-184.4-39.6-231.9
		c18.6-5.5,38.1-9.3,58.6-9.3c114.5,0,208.1,93.2,208.1,208.1L1352.5,907.8L1352.5,907.8z"/>
	<path id="_207597408" class="st1" d="M1548.1,711.4c-43.1,58.4-92.8,111.6-148,158.5V714.2c0-47-13.6-90.7-35.9-128.5
		c13-3.7,26.5-6.4,40.5-6.4C1479.9,579.3,1542.1,637.7,1548.1,711.4L1548.1,711.4z"/>
	<path id="_207597312" class="st1" d="M1404.7,369.1c-48.5,0-87.6,39.1-87.6,87.5c0,48.5,39.1,87.6,87.6,87.6
		c48.4,0,87.4-39.1,87.4-87.6C1492.2,408.2,1453.1,369.1,1404.7,369.1z"/>
</g>
</svg>
