<?xml version="1.0" encoding="utf-8"?>
<!-- Generator: Adobe Illustrator 27.4.0, SVG Export Plug-In . SVG Version: 6.00 Build 0)  -->
<svg version="1.1" id="Layer_1" xmlns="http://www.w3.org/2000/svg" xmlns:xlink="http://www.w3.org/1999/xlink" x="0px" y="0px"
	 viewBox="0 0 100 100" style="enable-background:new 0 0 100 100;" xml:space="preserve">
<style type="text/css">
	.st0{fill:#287E5F;}
</style>
<path class="st0" d="M88.4,20.5H71.1v-6.1c0-7.1-5.7-12.8-12.8-12.8H41.7c-7.1,0-12.8,5.7-12.8,12.8v6.1H11.6
	c-4.6,0-8.3,3.7-8.3,8.3v52.3c0,4.6,3.7,8.3,8.3,8.3h26.5c0.6-2.1,1.7-4,3.2-5.6l6.7-6.7C43,62.3,50.9,46,65.9,40.9
	c10.3-3.5,21.7-0.9,29.5,6.8c0.5,0.5,0.9,1,1.4,1.5V28.9C96.7,24.3,93,20.6,88.4,20.5z M60.3,20.5H39.7v-6.1c0-1.1,0.9-2,2-2h16.5
	c1.1,0,2,0.9,2,2L60.3,20.5z"/>
<path class="st0" d="M59.8,52.7c-7,6.9-8.4,17.6-3.4,26.1L46.3,88.9c-2.1,2.2-2,5.7,0.3,7.8c2.1,2,5.4,2,7.6,0l10.1-10.1
	c8.5,4.9,19.2,3.5,26.1-3.4l0,0c8.4-8.4,8.4-22.1,0-30.5S68.3,44.2,59.8,52.7z M83.9,76.7c-4.9,4.9-12.8,4.9-17.7,0
	c-4.9-4.9-4.9-12.8,0-17.7c4.9-4.9,12.8-4.9,17.7,0c2.3,2.3,3.7,5.5,3.7,8.8C87.6,71.2,86.3,74.4,83.9,76.7z"/>
</svg>
