<?xml version="1.0" encoding="utf-8"?>
<!-- Generator: Adobe Illustrator 27.2.0, SVG Export Plug-In . SVG Version: 6.00 Build 0)  -->
<svg version="1.1" id="Layer_1" xmlns="http://www.w3.org/2000/svg" xmlns:xlink="http://www.w3.org/1999/xlink" x="0px" y="0px"
	 viewBox="0 0 56.1 49.8" style="enable-background:new 0 0 56.1 49.8;" xml:space="preserve">
<style type="text/css">
	.st0{fill:#D9DCE1;}
	.st1{fill:#56AAFF;}
	.st2{fill:#0478ED;}
</style>
<g>
	<path class="st0" d="M43.8,17.5c0-0.1,0-0.2,0-0.3c0-8.4-6.8-15.1-15.1-15.1c-7.4,0-13.5,5.2-14.8,12.2C5.4,14.5-0.9,23.6,4,32.7
		c1.8,3.4,5.4,5.4,9.3,5.4h31c3.3,0,6.3-1.7,7.9-4.5C56.6,25.6,51.2,17.7,43.8,17.5z"/>
	<path class="st1" d="M16.6,43.7c0,2.2,4.9,4,11,4s11-1.8,11-4V39h-22V43.7z"/>
	<path class="st2" d="M38.6,38.6c0,2.1-4.9,3.9-11,3.9s-11-1.7-11-3.9s4.9-2.6,11-2.6S38.6,36.4,38.6,38.6z"/>
	<path class="st1" d="M16.6,36.7c0,2.2,4.9,4,11,4s11-1.8,11-4V32h-22V36.7z"/>
	<path class="st2" d="M38.6,31.6c0,2.1-4.9,3.9-11,3.9s-11-1.7-11-3.9s4.9-2.6,11-2.6S38.6,29.4,38.6,31.6z"/>
	<path class="st1" d="M16.6,29.7c0,2.2,4.9,4,11,4s11-1.8,11-4V25h-22V29.7z"/>
	<ellipse class="st2" cx="27.6" cy="25" rx="11" ry="4"/>
</g>
</svg>
