<?xml version="1.0" encoding="utf-8"?>
<!-- Generator: Adobe Illustrator 27.4.0, SVG Export Plug-In . SVG Version: 6.00 Build 0)  -->
<svg version="1.1" id="Layer_1" xmlns="http://www.w3.org/2000/svg" xmlns:xlink="http://www.w3.org/1999/xlink" x="0px" y="0px"
	 viewBox="0 0 42 44.7" style="enable-background:new 0 0 42 44.7;" xml:space="preserve">
<style type="text/css">
	.st0{fill:none;}
	.st1{fill:#287E5F;}
</style>
<g id="box">
	<rect x="-10.7" y="-9.2" class="st0" width="64" height="64"/>
</g>
<g id="icon">
	<g>
		<path class="st1" d="M25.4,25.1L24,20.6l-1.4,4.5H25.4z M38.3,2.5H13c-2.5,0-4.7,0.6-6.4,1.5C4,5.4,2.8,7.5,2.8,10.5
			c0,2.1,0,31,0,31c0,0.8,0.7,1.5,1.5,1.5h27.5c0,0,0,0,0,0c0.8,0,1.5-0.7,1.5-1.5h0v-31c0-0.8-0.6-1.5-1.5-1.5H9
			C7.7,9,6.5,8.8,6.5,8.2c0-0.2,0.4-0.9,1.5-1.5c1.2-0.7,3-1.1,5-1.1h23.8v31c0,0,0.7,0,1.5,0c0.8,0,1.5-0.7,1.5-1.5V4
			C39.8,3.2,39.1,2.5,38.3,2.5z M9.5,27.3h0.2l2-6.3c0,0,0,0,0-0.1c-0.8-0.2-1.2-0.8-1.1-1.2c0.2-0.5,1.2-0.1,1.8-0.4
			c3.7-1.8,7.4-2.5,11.6-2.2c0.7,0.1,1.5-0.6,1.8-0.3c0.3,0.3,0,1.6-1.4,1.8c0,0,0,0.1,0.1,0.1l2,6.3h0.2c0.7,0,0.6,2.5-2.7,2.5
			c-1.6,0-3-0.6-3-2.2c0-0.2,0.2-0.4,0.4-0.4h0.2l2-6.3c0,0,0,0,0,0c-1.4,0-2.8,0.1-4.3,0.3v10.9c0.5,0.3,1.1,0.6,1.3,0.7
			c0.4,0.2,0.7,0.5,0.7,1c0,0.3,0,0.5-0.3,0.5h-5.6c-0.3,0-0.3-0.2-0.3-0.5c0-0.4,0.3-0.8,0.7-1c0.2-0.1,0.8-0.4,1.3-0.7V19.4
			c-2.1,0.5-4.6,1.5-4.6,1.5c0,0,0,0.1,0,0.1l2,6.3c0.2,0,0.3,0,0.5,0.1c0.1,0.1,0.1,0.2,0.1,0.3c0,1.6-1.5,2.2-3,2.2
			c-1.6,0-3-0.6-3-2.2C9.1,27.4,9.3,27.3,9.5,27.3z M12.2,22.8l-1.4,4.5h2.8L12.2,22.8z"/>
	</g>
</g>
</svg>
