<?xml version="1.0" encoding="utf-8"?>
<!-- Generator: Adobe Illustrator 27.4.0, SVG Export Plug-In . SVG Version: 6.00 Build 0)  -->
<svg version="1.1" id="Layer_1" xmlns="http://www.w3.org/2000/svg" xmlns:xlink="http://www.w3.org/1999/xlink" x="0px" y="0px"
	 viewBox="0 0 1603.3 1606.9" style="enable-background:new 0 0 1603.3 1606.9;" xml:space="preserve">
<style type="text/css">
	.st0{fill-rule:evenodd;clip-rule:evenodd;fill:#287E5F;}
	.st1{fill:#287E5F;}
</style>
<g id="Layer_x0020_1">
	<path class="st0" d="M589.4,35.2h633.8v278.2c0,35.3,28.7,64,64,64h272.2v837.8c0,16.5-13.5,30-30,30h-305.1l-309.1-163.7
		c-23.6-12.5-51.1-15-76.6-7.2c-10.2,3.1-19.8,7.9-28.5,14L567.7,959.9c2.4-0.6,4.8-1.2,7.1-1.9c27.6-8.5,50.5-27.3,65.6-51.9
		c3.3-5.4,1.3-1.9,4-7.3c6.2-12.9,12.6-26,19.6-38.5c1.9-3.4,4.1-6.7,5.9-10c2.1-4,3.5-8,4.9-12.3c7.4-22.6,7.5-46.9,0.6-69.7
		c-8-26-24.9-48.3-47.8-63.1c-2.6-1.7-19.2-10.5-68.2-36.4V65.2C559.4,48.7,572.9,35.2,589.4,35.2L589.4,35.2z M759.5,1245.2H589.4
		c-16.5,0-30-13.5-30-30v-115.1l190.9,101.1c-0.2,10.6,1.3,21.2,4.5,31.4C756,1237,757.6,1241.2,759.5,1245.2L759.5,1245.2z
		 M731.7,373.5c-13.3,0-24,10.7-24,24s10.7,24,24,24h310.4c13.3,0,24-10.7,24-24s-10.7-24-24-24H731.7L731.7,373.5z M731.7,563.4
		c-13.3,0-24,10.7-24,24s10.7,24,24,24h657c13.3,0,24-10.7,24-24s-10.7-24-24-24H731.7z M731.7,753.3c-13.3,0-24,10.7-24,24
		s10.7,24,24,24h657c13.3,0,24-10.7,24-24s-10.7-24-24-24H731.7z M731.7,943.2c-13.3,0-24,10.7-24,24s10.7,24,24,24h657
		c13.3,0,24-10.7,24-24s-10.7-24-24-24H731.7z"/>
	<path class="st1" d="M369,778.7l132.3,70.1L486.5,877l15-28.3c15.6,8.3,21.6,27.6,13.3,43.3c-0.3,0.6-0.7,1.3-1.1,1.9l-99.6,188
		l-28.2-14.9l28.3,15c-8.3,15.6-27.6,21.6-43.3,13.3c-0.6-0.3-1.3-0.7-1.9-1.1l-132.3-70.1l14.9-28.2l-15,28.3
		c-15.6-8.3-21.6-27.6-13.3-43.3c0.3-0.6,0.7-1.3,1.1-1.9l99.6-188l28.2,14.9l-28.3-15c8.3-15.6,27.6-21.6,43.3-13.3
		C367.8,778,368.4,778.3,369,778.7L369,778.7z"/>
	<path class="st1" d="M329.3,1247.8l-195.4-103.5c-20.3-10.7-34.3-28.8-40.6-49.1c-6.3-20.4-4.8-43.1,5.9-63.3l24.2-45.8
		c10.7-20.3,28.8-34.3,49.1-40.6c20.4-6.3,43.1-4.8,63.3,5.9L429.4,1054c0.7,0.3,1.3,0.6,2,0.9l0,0.1c20.2,10.7,34.2,28.7,40.5,49.1
		c6,19.6,4.9,41.3-4.7,60.9c-0.1,0.4-0.3,0.7-0.5,1l-0.1,0.2c-0.2,0.4-0.4,0.8-0.6,1.3l-0.1,0l-24.2,45.7
		c-10.7,20.3-28.8,34.3-49.1,40.6C372.2,1259.9,349.5,1258.5,329.3,1247.8L329.3,1247.8z"/>
	<path class="st1" d="M408.7,625.1l195.4,103.5l-14.9,28.2l0.3-0.6l14.6-27.7l0.1,0l0-0.1c0.8,0.4,1.7,0.9,2.4,1.4
		c18.9,10.9,32,28.2,38,47.7c6.3,20.4,4.8,43.1-5.9,63.3l-28.2-14.9l0.6,0.3l27.7,14.6l0,0.1l0.1,0c-0.3,0.6-0.7,1.3-1.1,1.9
		l-22.2,41.8c-0.7,1.6-1.5,3.1-2.5,4.5c-10.9,18.9-28.2,32-47.7,38c-19.5,6-41.2,4.9-60.8-4.6c-1.6-0.7-3.1-1.4-4.5-2.3L306.7,818
		c-20.3-10.7-34.3-28.8-40.6-49.1c-6.3-20.4-4.8-43.1,5.9-63.3l24.2-45.8c10.7-20.3,28.8-34.3,49.1-40.6
		C365.8,613,388.5,614.4,408.7,625.1L408.7,625.1z"/>
	<path class="st1" d="M900.2,1109.8l527.7,279.6c16.7,8.9,28.3,23.7,33.5,40.5s4,35.5-4.9,52.2l-16.3,30.8c-0.7,1.6-1.6,3.2-2.6,4.7
		c-9,15.2-23.1,25.8-39,30.7c-15.9,4.9-33.5,4.1-49.5-3.5c-1.6-0.7-3.2-1.5-4.7-2.4l-525.7-278.5c-16.7-8.9-28.3-23.7-33.5-40.5
		c-5.2-16.8-4-35.5,4.9-52.2l17.3-32.7c8.9-16.7,23.7-28.3,40.5-33.5C864.8,1099.8,883.5,1101,900.2,1109.8L900.2,1109.8z"/>
	<path class="st1" d="M460.6,939.3c-15.6-8.2-34.9-2.2-43.1,13.4c-8.2,15.6-2.2,34.9,13.4,43.1l377.5,199.9
		c15.6,8.2,34.9,2.2,43.1-13.4c8.2-15.6,2.2-34.9-13.4-43.1L460.6,939.3L460.6,939.3z"/>
	<path class="st1" d="M268.8,914.8c15.6,8.2,34.9,2.2,43.1-13.4c8.2-15.6,2.2-34.9-13.4-43.1l-37.5-19.9
		c-15.6-8.2-34.9-2.2-43.1,13.4c-8.2,15.6-2.2,34.9,13.4,43.1L268.8,914.8L268.8,914.8z"/>
	<path class="st1" d="M71.5,1507.7c-17.7,0-32,14.3-32,32s14.3,32,32,32h531.3c17.7,0,32-14.3,32-32s-14.3-32-32-32H71.5
		L71.5,1507.7z"/>
	<path class="st1" d="M217.6,1404.6h251.6c19.6,0,37.3,8,50.2,20.8c12.9,12.9,20.8,30.6,20.8,50.2v64.1c0,17.7-14.3,32-32,32H166.1
		c-17.7,0-32-14.3-32-32v-51.6c0-23,9.4-43.9,24.5-59C173.7,1414,194.6,1404.6,217.6,1404.6L217.6,1404.6z"/>
	<path class="st1" d="M1531,345.5h-243.8c-17.7,0-32-14.3-32-32V69.1V69c0-17.7,14.3-32,32-32c8.9,0,17,3.7,22.8,9.6l244.3,244.3
		l0,0c12.5,12.5,12.5,32.8,0,45.3C1547.9,342.5,1540,345.5,1531,345.5L1531,345.5z"/>
</g>
</svg>
