<?xml version="1.0" encoding="utf-8"?>
<!-- Generator: Adobe Illustrator 27.3.1, SVG Export Plug-In . SVG Version: 6.00 Build 0)  -->
<svg version="1.1" id="Layer_1" xmlns="http://www.w3.org/2000/svg" xmlns:xlink="http://www.w3.org/1999/xlink" x="0px" y="0px"
	 viewBox="0 0 100 100" style="enable-background:new 0 0 100 100;" xml:space="preserve">
<style type="text/css">
	.st0{fill:#287E5F;}
</style>
<g id="XMLID_1064_">
	<path id="XMLID_1065_" class="st0" d="M91.7,38.5l-41-16.3c-0.4-0.2-0.9-0.2-1.4,0l-41,16.3c-1.6,0.6-1.6,2.9,0,3.5l4.4,1.7l0,0
		v12.8c-0.7,0.4-1.1,1-1.1,1.8s0.5,1.5,1.2,1.9c-0.1,0.1-0.2,0.2-0.2,0.4L11,68.1c-0.1,0.5,0.3,0.9,0.7,0.9h3.9
		c0.5,0,0.8-0.4,0.7-0.9l-1.5-7.5c0-0.2-0.1-0.3-0.2-0.4c0.7-0.3,1.2-1,1.2-1.9c0-0.8-0.4-1.5-1.1-1.8v-12l34.6,13.7
		c0.4,0.2,0.9,0.2,1.4,0l41-16.3C93.3,41.3,93.3,39.1,91.7,38.5z"/>
	<path id="XMLID_1066_" class="st0" d="M78.2,51.2l-27.8,11c-0.3,0.1-0.5,0.1-0.8,0l-27.8-11c-0.7-0.3-1.4,0.2-1.4,1v12.6
		c0,0.4,0.2,0.8,0.6,1l28.6,12c0.3,0.1,0.6,0.1,0.8,0l28.6-12c0.4-0.2,0.6-0.5,0.6-1V52.2C79.7,51.5,78.9,51,78.2,51.2z"/>
</g>
</svg>
