<?xml version="1.0" encoding="utf-8"?>
<!-- Generator: Adobe Illustrator 27.4.0, SVG Export Plug-In . SVG Version: 6.00 Build 0)  -->
<svg version="1.1" id="Layer_1" xmlns="http://www.w3.org/2000/svg" xmlns:xlink="http://www.w3.org/1999/xlink" x="0px" y="0px"
	 viewBox="0 0 25 25" style="enable-background:new 0 0 25 25;" xml:space="preserve">
<style type="text/css">
	.st0{fill:#287E5F;}
</style>
<path class="st0" d="M22.8,4L23,2.3c0-0.3-0.1-0.7-0.3-0.9C22.5,1.1,22.2,1,21.9,1H3.1C2.8,1,2.5,1.1,2.3,1.4C2.1,1.6,2,2,2,2.3
	L2.2,4H22.8z"/>
<path class="st0" d="M23.8,8L24,6.3c0-0.3-0.1-0.7-0.3-0.9C23.5,5.1,23.2,5,22.9,5H2.1C1.8,5,1.5,5.1,1.3,5.4C1.1,5.6,1,6,1,6.3
	L1.2,8H23.8z"/>
<path class="st0" d="M24.7,9.4C24.5,9.1,24.2,9,23.9,9H1.1C0.8,9,0.5,9.1,0.3,9.4C0.1,9.6,0,10,0,10.3l1.7,12.5
	C1.8,23.5,2.4,24,3.1,24h18.9c0.7,0,1.2-0.5,1.3-1.2L25,10.3C25,10,24.9,9.6,24.7,9.4z M17,16.8c0,0.7-0.6,1.2-1.2,1.2H9.2
	C8.6,18,8,17.4,8,16.8V15h1v1.8C9,16.9,9.1,17,9.2,17h6.5c0.1,0,0.2-0.1,0.2-0.2V15h1V16.8z"/>
</svg>
