<?xml version="1.0" encoding="utf-8"?>
<!-- Generator: Adobe Illustrator 27.4.0, SVG Export Plug-In . SVG Version: 6.00 Build 0)  -->
<svg version="1.1" id="Icon" xmlns="http://www.w3.org/2000/svg" xmlns:xlink="http://www.w3.org/1999/xlink" x="0px" y="0px"
	 viewBox="0 0 384 358" style="enable-background:new 0 0 384 358;" xml:space="preserve">
<style type="text/css">
	.st0{fill:#287E5F;}
</style>
<path class="st0" d="M268.3,11c-29.1,0-55.7,12.9-76.3,36.8C171.4,23.9,144.8,11,115.7,11C64.7,11,12,53.4,12,124.3
	c0,70,43.9,107.3,94.8,150.6c20.7,17.6,44.1,37.5,68,62.2l4.3,4.4c3.4,3.5,8.1,5.5,13,5.5s9.6-2,12.9-5.5l4.3-4.5
	c23.9-24.7,47.3-44.7,68-62.3c50.8-43.2,94.7-80.5,94.7-150.5C372,53.4,319.3,11,268.3,11z M276,191c0,6.6-5.4,12-12,12h-48v48
	c0,6.6-5.4,12-12,12h-24c-6.6,0-12-5.4-12-12v-48h-48c-6.6,0-12-5.4-12-12v-24c0-6.6,5.4-12,12-12h48v-48c0-6.6,5.4-12,12-12h24
	c6.6,0,12,5.4,12,12v48h48c6.6,0,12,5.4,12,12V191z"/>
</svg>
