<?xml version="1.0" encoding="utf-8"?>
<!-- Generator: Adobe Illustrator 27.3.1, SVG Export Plug-In . SVG Version: 6.00 Build 0)  -->
<svg version="1.1" id="Layer_1" xmlns="http://www.w3.org/2000/svg" xmlns:xlink="http://www.w3.org/1999/xlink" x="0px" y="0px"
	 viewBox="0 0 100 100" style="enable-background:new 0 0 100 100;" xml:space="preserve">
<style type="text/css">
	.st0{fill:#287E5F;}
</style>
<g id="XMLID_902_">
	<path id="XMLID_1116_" class="st0" d="M54.3,69.8c0,1.3-0.6,2.8-2.4,3.3c-0.2,0.1-0.5-0.1-0.5-0.3v-6.1l0.8,0.2
		C53.2,67.2,54.3,68.2,54.3,69.8z"/>
	<g id="XMLID_548_">
		<path id="XMLID_1115_" class="st0" d="M48.3,55.8v4.8c0,0.3-0.3,0.4-0.5,0.3c-1-0.4-1.9-1.2-1.9-2.6c0-1.2,0.6-2.4,1.9-2.9
			C48,55.4,48.3,55.5,48.3,55.8z"/>
		<path id="XMLID_1133_" class="st0" d="M63.2,34.5c-0.6-0.7-1.5-1.2-2.6-1.2H39.4c-1,0-2,0.4-2.6,1.2c-7.2,9-50.3,58.4,13.2,58.4
			S70.4,43.5,63.2,34.5z M51.8,77.3c-0.2,0-0.3,0.2-0.3,0.4v2.6c0,0.2-0.2,0.4-0.4,0.4h-2.5c-0.2,0-0.4-0.2-0.4-0.4v-2.6
			c0-0.2-0.1-0.3-0.3-0.4c-2.3-0.3-4.5-1.2-5.8-3.2c-0.5-0.8-0.9-1.8-1.1-2.7c-0.1-0.6-0.2-1.1-0.2-1.7c0-0.3,0-0.6,0-0.9
			s-0.1-0.7,0.3-0.8c0.1-0.1,4-0.1,4.2,0s0.1,0.5,0.2,0.7c0.2,2.7,0.6,3.7,2.4,4.3c0.2,0.1,0.5-0.1,0.5-0.3v-6.6
			c0-0.2-0.1-0.3-0.3-0.3c-3.4-0.9-6.7-2.4-6.7-7.2c0-3.8,2.8-6.8,6.6-7.3c0.2,0,0.3-0.2,0.3-0.3v-1.5c0-0.2,0.2-0.4,0.4-0.4h2.5
			c0.2,0,0.4,0.2,0.4,0.4V51c0,0.2,0.1,0.3,0.3,0.3c2.2,0.3,4.3,1.4,5.5,3.3c0.6,1.1,0.9,2.3,1,3.5c0,0.5-0.1,0.9-0.6,1
			s-2.4,0-2.9,0S54,59,54,58.4c-0.1-1.2-0.4-2.2-1.8-2.8c-0.2-0.1-0.5,0.1-0.5,0.3v5.6c0,0.2,0.1,0.3,0.3,0.3
			c4.2,1.2,7.1,2.4,7.1,7.3C58.8,74.9,54.8,76.9,51.8,77.3z"/>
		<path id="XMLID_888_" class="st0" d="M39.3,26L31.4,9.8c-0.2-0.5,0-1.1,0.5-1.3c2.4-1.1,9-3.2,15.2,2.3c6.8,6,15.3,2.1,19.7-0.7
			c0.8-0.5,1.8,0.4,1.4,1.2l-6.8,14.6c-0.5,1.1-1.6,1.8-2.9,1.8H42.2C41,27.8,39.8,27.1,39.3,26z"/>
	</g>
</g>
</svg>
