<?xml version="1.0" encoding="utf-8"?>
<!-- Generator: Adobe Illustrator 27.3.1, SVG Export Plug-In . SVG Version: 6.00 Build 0)  -->
<svg version="1.1" id="Layer_1" xmlns="http://www.w3.org/2000/svg" xmlns:xlink="http://www.w3.org/1999/xlink" x="0px" y="0px"
	 viewBox="0 0 48 48" style="enable-background:new 0 0 48 48;" xml:space="preserve">
<style type="text/css">
	.st0{fill:#287E5F;}
</style>
<path class="st0" d="M1,38.2c0,0,3.6,1,8.4,2.4L6.1,19.2L1,38.2z M16.5,42.5c9.3,2.6,19,5.2,18.1,4.7c-0.5-0.3-0.2-3.3,0.4-7.4
	C29,40.8,21.7,41.8,16.5,42.5z M46.9,34.8c-2-0.3-7.5-30-7.5-30l-9.1,1.4c0.6,1,1,2.2,1,3.5c0,3.5-2.9,6.4-6.4,6.4
	c-3.5,0-6.4-2.9-6.4-6.4c0-0.6,0.1-1.1,0.2-1.7L7.7,9.7l4.7,30.5C12.5,40.2,49,35.1,46.9,34.8z M25,13.3c2.7,0,4.9-2.2,4.9-4.9
	c0-1.5-0.7-2.8-1.7-3.7c0,0.2,0.1,0.5,0.1,0.7c0,1.8-1.4,3.2-3.2,3.2c-1.8,0-3.2-1.4-3.2-3.2c0-0.2,0-0.5,0.1-0.7
	c-1,0.9-1.7,2.2-1.7,3.7C20.1,11.1,22.3,13.3,25,13.3z M25,6.7c1.6,0,3-1.3,3-3c0-1.6-1.3-3-3-3c-1.6,0-3,1.3-3,3
	C22,5.3,23.3,6.7,25,6.7z"/>
</svg>
