<?xml version="1.0" encoding="utf-8"?>
<!-- Generator: Adobe Illustrator 27.4.0, SVG Export Plug-In . SVG Version: 6.00 Build 0)  -->
<svg version="1.1" id="Layer_1" xmlns="http://www.w3.org/2000/svg" xmlns:xlink="http://www.w3.org/1999/xlink" x="0px" y="0px"
	 viewBox="0 0 100 100" style="enable-background:new 0 0 100 100;" xml:space="preserve">
<style type="text/css">
	.st0{fill-rule:evenodd;clip-rule:evenodd;fill:#287E5F;}
	.st1{fill:#287E5F;}
</style>
<path class="st0" d="M40.7,31.7c-1.2-5.7-7.8-10.1-15-10.1S12,26,10.8,31.7c-0.3,1.5-0.8,5.5,1.7,13.8c1.4,4.8,6.2,8.7,13.3,8.7
	s11.9-3.9,13.3-8.7C41.5,37.2,41,33.2,40.7,31.7z"/>
<path class="st0" d="M40.9,56.9c-1.4-1.2-3.1-2.1-4.9-2.5c-2.8,2.6-6.5,3.9-10.3,3.8c-3.8,0.1-7.5-1.2-10.3-3.8
	c-1.8,0.4-3.5,1.3-4.9,2.5C6.2,61.6,5.2,75.5,5,83h41.5C46.3,75.5,45.3,61.5,40.9,56.9z"/>
<path class="st0" d="M85.3,56.8c-1.4-1.2-3.1-2.1-4.8-2.5c-2.8,2.6-6.5,3.9-10.3,3.8c-3.8,0.1-7.5-1.2-10.3-3.8
	c-1.8,0.4-3.5,1.3-4.8,2.5c-4.4,4.7-5.4,18.6-5.6,26.2H91C90.8,75.5,89.7,61.5,85.3,56.8z"/>
<path class="st1" d="M89.5,36.8c-1.3-0.4-2.7-0.5-4.1-0.4c0.2-1.6,0.1-3.1-0.2-4.7c-0.7-2.8-2.4-5.2-4.7-6.8
	c-1.7-1.2-3.6-2.2-5.7-2.7c-1.5-0.4-3-0.6-4.6-0.6c-1.8,0-3.6,0.3-5.3,0.8c-2.3,0.7-4.4,1.9-6.2,3.5c-1.8,1.5-3,3.6-3.5,5.8
	c-0.3,1.5-0.3,3.1-0.2,4.6c-1.4-0.1-2.8,0-4.1,0.4c-2.4,0.6-6.6,3.9-5.3,9.2c0.6,2.2,4.1,4.9,6.6,6.4C50.8,48.5,51,45.1,52,43
	c0.7-1.4,1.9-2.6,3.4-3.3c0.4,2,0.8,3.9,1.4,5.8c0.1,0.2,0.2,0.5,0.2,0.7c1.7,4.5,6.3,8,13.1,8s11.4-3.5,13.1-8.1
	c0.1-0.2,0.2-0.4,0.2-0.6c0.6-1.9,1.1-3.9,1.4-5.8c1.5,0.7,2.7,1.8,3.4,3.3c1,2.1,1.2,5.5-0.2,9.4c2.5-1.5,6-4.2,6.6-6.4
	C96.1,40.7,91.8,37.4,89.5,36.8z"/>
</svg>
