<?xml version="1.0" encoding="utf-8"?>
<!-- Generator: Adobe Illustrator 27.7.0, SVG Export Plug-In . SVG Version: 6.00 Build 0)  -->
<svg version="1.1" id="Layer_1" xmlns="http://www.w3.org/2000/svg" xmlns:xlink="http://www.w3.org/1999/xlink" x="0px" y="0px"
	 viewBox="0 0 93.3 91.4" style="enable-background:new 0 0 93.3 91.4;" xml:space="preserve">
<style type="text/css">
	.st0{fill:#287E5F;}
	.st1{fill:#94BFAF;}
	.st2{fill:#184C39;}
</style>
<g>
	<ellipse class="st0" cx="25.2" cy="17.7" rx="6.6" ry="6.9"/>
	<path class="st0" d="M28.7,24.8l-3.4,2.6l-3.4-2.6c-1,0.2-9,2.2-9.7,8.4c-0.1,0.6,0.2,1.2,0.7,1.6c1.5,1,5.2,3,12.4,3l0,0l0,0
		c7.2,0,10.9-2,12.4-3c0.5-0.4,0.8-1,0.7-1.6C37.6,27,29.6,25,28.7,24.8z"/>
	<ellipse class="st1" cx="71.3" cy="44.1" rx="4.9" ry="5.2"/>
	<path class="st1" d="M73.9,49.5l-2.5,2l-2.5-2c-0.7,0.2-6.7,1.7-7.3,6.3c-0.1,0.5,0.1,0.9,0.5,1.2c1.1,0.8,3.9,2.2,9.3,2.2l0,0l0,0
		c5.4,0,8.2-1.5,9.3-2.2c0.4-0.3,0.6-0.7,0.5-1.2C80.6,51.1,74.6,49.6,73.9,49.5z"/>
	<ellipse class="st1" cx="30.1" cy="66.5" rx="4.9" ry="5.2"/>
	<path class="st1" d="M32.7,71.8l-2.5,2l-2.5-2C27,72,21,73.5,20.4,78.1c-0.1,0.5,0.1,0.9,0.5,1.2c1.1,0.8,3.9,2.2,9.3,2.2l0,0l0,0
		c5.4,0,8.2-1.5,9.3-2.2c0.4-0.3,0.6-0.7,0.5-1.2C39.4,73.5,33.4,72,32.7,71.8z"/>
	<path class="st2" d="M91.5,77.8c-0.9-3.3-4.2-5.3-7.5-4.6l-3.3-8.3c5.2-3.2,8.6-8.9,8.6-15.3c0-9.9-8.1-18-18-18
		c-6.3,0-11.9,3.3-15.1,8.2l-9.6-5.2C48.1,31.5,49,28,49,24.3c0-2.5-0.4-5-1.2-7.3l10.1-2.7c1.3,2,3.8,3.2,6.4,2.8
		c3.5-0.5,5.9-3.8,5.4-7.3s-3.8-5.9-7.3-5.4c-3.5,0.5-5.8,3.8-5.4,7.2l-10.3,2.8C43,6.3,34.8,0.7,25.3,0.7
		c-13,0-23.6,10.6-23.6,23.6s10.6,23.6,23.6,23.6c0.2,0,0.4,0,0.6,0l0.8,7.2c-8.2,1.6-14.5,8.9-14.5,17.6c0,9.9,8.1,18,18,18
		s18-8.1,18-18c0-2.7-0.6-5.3-1.7-7.6l9.8-5.5c3.2,4.8,8.7,8,14.9,8c2.4,0,4.7-0.5,6.9-1.4l3.2,8.2c-2,1.5-3,4.2-2.3,6.8
		c0.9,3.4,4.5,5.4,7.9,4.5C90.4,84.8,92.4,81.2,91.5,77.8z M5.1,24.3c0-11.2,9.1-20.2,20.2-20.2s20.2,9.1,20.2,20.2
		s-9.1,20.2-20.2,20.2S5.1,35.5,5.1,24.3z M30.2,87.3c-8.1,0-14.6-6.6-14.6-14.6s6.6-14.6,14.6-14.6s14.6,6.6,14.6,14.6
		S38.2,87.3,30.2,87.3z M45.1,62.7c-3.2-4.8-8.7-8-14.9-8c-0.2,0-0.5,0-0.7,0l-0.8-7c6.9-1,12.8-5,16.5-10.6l9.7,5.2
		c-1,2.2-1.6,4.7-1.6,7.3c0,2.7,0.6,5.3,1.7,7.6L45.1,62.7z M56.7,49.6c0-8.1,6.6-14.6,14.6-14.6s14.6,6.6,14.6,14.6
		s-6.6,14.6-14.6,14.6S56.7,57.7,56.7,49.6z"/>
</g>
</svg>
