<?xml version="1.0" encoding="utf-8"?>
<!-- Generator: Adobe Illustrator 27.7.0, SVG Export Plug-In . SVG Version: 6.00 Build 0)  -->
<svg version="1.1"
	 id="svg4156" xmlns:inkscape="http://www.inkscape.org/namespaces/inkscape" xmlns:rdf="http://www.w3.org/1999/02/22-rdf-syntax-ns#" xmlns:dc="http://purl.org/dc/elements/1.1/" xmlns:svg="http://www.w3.org/2000/svg" xmlns:sodipodi="http://sodipodi.sourceforge.net/DTD/sodipodi-0.dtd" xmlns:cc="http://creativecommons.org/ns#"
	 xmlns="http://www.w3.org/2000/svg" xmlns:xlink="http://www.w3.org/1999/xlink" x="0px" y="0px" viewBox="0 0 474.8 485"
	 style="enable-background:new 0 0 474.8 485;" xml:space="preserve">
<style type="text/css">
	.st0{fill:#287E5F;}
</style>
<g id="layer1" transform="translate(0,448)">
	<g id="g45099" transform="translate(1837.7009,-20639.312)">
		<path id="path13" class="st0" d="M-1574.3,20376.6c-10.6,31.3-23.5,60.3-52.3,73.4c-19.7-9.5-34.1-29.3-50.7-46.1
			c-0.7-0.7-1.4-1.4-2.1-2.1c-8,1.7-16.1,3-24.3,4c28.7,33.9,54.4,71.3,67.9,118c-21.8-8-46-5.1-64.9,0.1c2,7.2,2.9,14.9,2.7,22.4
			c51.6,5.5,83.2,37.8,86.3,94.9c0.6,10.1,0.2,20.9-1.1,32.5h57.7c-2.6-9.5,1.1-29.3,0-43.9c-1.8-25.1-12.1-51.4-13.8-69.2
			c-4.4-45.8,21.4-69.7,43-89.3c7-6.3,15.2-10.4,23.7-14.2c-0.7-7.3-0.5-14.7,0.9-21.9c0.2-1,0.4-2.1,0.6-3.1
			c-23.6,14.8-49.4,28.3-79.7,29.3c3.2-31.5,15.2-58.2,25.6-84.4C-1561.3,20377.2-1567.8,20377-1574.3,20376.6L-1574.3,20376.6z"/>
		<path id="path45063" class="st0" d="M-1557.5,20193.8c-21.6,0-39.1,22.7-39.1,50.7c0,18.4,7.6,34.6,18.9,43.4
			c-13.9,8.5-30.4,14.2-41.2,19.9c-3,1.6-6.2,4.4-8.8,7.9c-1.6,2.3-3.1,4.7-4.3,7.2c0,0.1-0.1,0.1-0.1,0.2c-3.1,6-5.1,12.5-6.2,19.1
			c-0.3,1.5-0.5,3-0.7,4.4c-0.1,0.8-0.3,2.7-0.2,3.5c0,0,0,0.1,0,0.2c-0.4,5.5,9.9,7.2,9.9,7.2c3.8,1.1,10.9,2.4,19.5,3.6
			c15.3,2.5,30.9,3.4,46.3,3.8c1.5,0.1,3.1,0.1,4.7,0.1h2.4h0.3c1.6,0,3.2,0,4.7-0.1c15.4-0.5,31.1-1.3,46.3-3.8
			c8.6-1.2,15.6-2.4,19.5-3.6c0,0,10.3-1.8,9.9-7.2c0,0,0-0.1,0-0.2c0.1-0.9-0.1-2.7-0.2-3.5c-0.1-1-0.3-2-0.5-3.1
			c0-0.3-0.1-0.6-0.1-0.9c0-0.1,0-0.2-0.1-0.3c-1-6-2.8-12-5.4-17.6c-0.2-0.4-0.4-0.7-0.5-1.1c0-0.1-0.1-0.2-0.2-0.3
			c-1.3-2.7-2.8-5.3-4.6-7.7c-2.6-3.5-5.7-6.3-8.7-7.9c-10.8-5.7-27.4-11.5-41.3-19.9c11.3-8.9,18.9-25,18.9-43.4
			C-1518.5,20216.5-1536,20193.8-1557.5,20193.8L-1557.5,20193.8z M-1744,20224.6c-21.6,0-39,22.7-39,50.7
			c0,18.4,7.6,34.6,18.9,43.4c-13.9,8.5-30.4,14.2-41.2,19.9c-3,1.6-6.2,4.4-8.8,7.9c-1.6,2.3-3.1,4.7-4.3,7.2
			c0,0.1-0.1,0.1-0.1,0.2c-3.1,6-5.1,12.5-6.2,19.1c-0.3,1.5-0.5,3-0.7,4.4c-0.1,0.8-0.3,2.7-0.2,3.5c0,0.1,0,0.1,0,0.2
			c-0.4,5.5,9.9,7.2,9.9,7.2c3.8,1.1,10.9,2.4,19.5,3.5c15.3,2.5,30.9,3.4,46.3,3.8c1.5,0.1,3.1,0.1,4.7,0.1h2.5h0.3
			c1.6,0,3.2,0,4.7-0.1c15.4-0.5,31.1-1.3,46.3-3.8c8.6-1.2,15.6-2.4,19.5-3.5c0,0,10.3-1.8,9.9-7.2c0-0.1,0-0.1,0-0.2
			c0.1-0.9-0.1-2.7-0.2-3.5c-0.1-1-0.3-2-0.5-3.1c0-0.3-0.1-0.6-0.2-0.9c0-0.1,0-0.2-0.1-0.3c-1-6-2.8-12-5.4-17.6
			c-0.2-0.4-0.4-0.7-0.5-1.1c0-0.1-0.1-0.2-0.1-0.3c-1.3-2.7-2.9-5.3-4.6-7.7c-2.6-3.5-5.7-6.3-8.7-7.9
			c-10.8-5.7-27.4-11.5-41.3-19.9c11.3-8.9,18.9-25,18.9-43.4C-1704.9,20247.3-1722.4,20224.6-1744,20224.6L-1744,20224.6z
			 M-1451.5,20399c-21.6,0-39.1,22.7-39.1,50.7c0,18.4,7.6,34.6,18.9,43.4c-13.9,8.5-30.4,14.2-41.2,19.9c-3,1.6-6.2,4.4-8.8,7.9
			c-1.6,2.3-3.1,4.7-4.3,7.2c0,0.1-0.1,0.1-0.1,0.2c-3.1,6-5.1,12.6-6.2,19.1c-0.3,1.5-0.5,3-0.7,4.4c-0.1,0.8-0.3,2.6-0.2,3.5
			c0,0,0,0.1,0,0.2c-0.4,5.5,9.9,7.2,9.9,7.2c3.8,1.1,10.9,2.4,19.5,3.5c15.3,2.5,31,3.4,46.3,3.9c1.5,0.1,3.1,0.1,4.7,0.1h2.4h0.3
			c1.6,0,3.2,0,4.7-0.1c15.4-0.5,31.1-1.4,46.3-3.9c8.6-1.2,15.6-2.4,19.5-3.5c0,0,10.3-1.8,9.9-7.2c0-0.1,0-0.1,0-0.2
			c0.1-0.9-0.1-2.7-0.2-3.5c-0.1-1-0.3-2.1-0.5-3.1c0-0.3-0.1-0.6-0.1-0.8c0-0.1,0-0.2-0.1-0.3c-1-6-2.8-12-5.4-17.6
			c-0.2-0.4-0.4-0.8-0.5-1.1c0-0.1-0.1-0.2-0.2-0.3c-1.3-2.7-2.8-5.3-4.6-7.7c-2.6-3.5-5.8-6.3-8.8-7.9
			c-10.8-5.7-27.4-11.5-41.2-19.9c11.3-8.9,18.9-25,18.9-43.4C-1412.5,20421.7-1430,20399-1451.5,20399L-1451.5,20399z
			 M-1749.1,20493.1c-21.6,0-39.1,22.7-39.1,50.7c0,18.4,7.6,34.6,18.9,43.4c-13.9,8.5-30.4,14.2-41.2,19.9c-3,1.6-6.2,4.4-8.8,7.9
			c-1.6,2.3-3.1,4.7-4.3,7.2c0,0.1-0.1,0.1-0.1,0.2c-3.1,6-5.1,12.6-6.2,19.1c-0.3,1.5-0.5,3-0.7,4.4c-0.1,0.8-0.3,2.6-0.2,3.5
			c0,0,0,0.1,0,0.2c-0.4,5.5,9.9,7.2,9.9,7.2c3.8,1.1,10.9,2.4,19.5,3.5c15.3,2.5,31,3.4,46.3,3.8c1.5,0.1,3.1,0.1,4.7,0.1h2.4h0.3
			c1.6,0,3.2-0.1,4.7-0.1c15.4-0.5,31.1-1.3,46.3-3.8c8.6-1.2,15.6-2.4,19.5-3.5c0,0,10.3-1.8,9.9-7.2c0,0,0-0.1,0-0.2
			c0.1-0.9-0.1-2.7-0.2-3.5c-0.1-1-0.3-2.1-0.5-3.1c0-0.3-0.1-0.6-0.1-0.8c0-0.1,0-0.2-0.1-0.3c-1-6-2.8-12-5.4-17.6
			c-0.2-0.4-0.4-0.8-0.5-1.1c0-0.1-0.1-0.2-0.2-0.3c-1.3-2.7-2.8-5.3-4.6-7.7c-2.6-3.5-5.8-6.3-8.8-7.9
			c-10.8-5.7-27.4-11.5-41.2-19.9c11.3-8.9,18.9-25,18.9-43.4C-1710,20515.8-1727.5,20493.1-1749.1,20493.1L-1749.1,20493.1z"/>
	</g>
</g>
</svg>
