<?xml version="1.0" encoding="utf-8"?>
<!-- Generator: Adobe Illustrator 27.7.0, SVG Export Plug-In . SVG Version: 6.00 Build 0)  -->
<svg version="1.1" id="Layer_1" xmlns="http://www.w3.org/2000/svg" xmlns:xlink="http://www.w3.org/1999/xlink" x="0px" y="0px"
	 viewBox="0 0 51.7 51.9" style="enable-background:new 0 0 51.7 51.9;" xml:space="preserve">
<style type="text/css">
	.st0{fill:#287E5F;}
</style>
<g>
	<path class="st0" d="M17.6,9.2c0,4.6,3.7,8.3,8.3,8.3c4.6,0,8.3-3.7,8.3-8.3c0-4.6-3.7-8.3-8.3-8.3C21.3,1,17.6,4.7,17.6,9.2z"/>
	<path class="st0" d="M45.8,38.9v-2.4c0-0.6-0.4-1-1-1H26.9v-2.4h13c0.6,0,1-0.5,1-1v-5.9c0-3.7-3-6.7-6.7-6.7H17.5
		c-3.7,0-6.7,3-6.7,6.7v5.9c0,0.5,0.4,1,1,1h13v2.4H6.9c-0.6,0-1,0.4-1,1v2.4c-2.9,0.5-5.1,3-5.1,6c0,3.4,2.7,6.1,6.1,6.1
		c3.4,0,6.1-2.7,6.1-6.1c0-3-2.2-5.5-5.1-6v-1.4h16.9v1.4c-2.9,0.5-5.1,3-5.1,6c0,3.4,2.7,6.1,6.1,6.1c3.3,0,6.1-2.7,6.1-6.1
		c0-3-2.2-5.5-5.1-6v-1.4h16.9v1.4c-2.9,0.5-5.1,3-5.1,6c0,3.4,2.7,6.1,6.1,6.1c3.4,0,6.1-2.7,6.1-6.1
		C50.9,41.9,48.6,39.4,45.8,38.9z"/>
</g>
</svg>
