<?xml version="1.0" encoding="utf-8"?>
<!-- Generator: Adobe Illustrator 27.7.0, SVG Export Plug-In . SVG Version: 6.00 Build 0)  -->
<svg version="1.1" id="Layer_1" xmlns="http://www.w3.org/2000/svg" xmlns:xlink="http://www.w3.org/1999/xlink" x="0px" y="0px"
	 viewBox="0 0 263.7 285.2" style="enable-background:new 0 0 263.7 285.2;" xml:space="preserve">
<style type="text/css">
	.st0{fill:#287E5F;}
	.st1{fill:#287E5F;stroke:#000000;stroke-width:0.25;stroke-miterlimit:10;}
</style>
<g>
	<path class="st0" d="M131.8,73c19.9,0,36-15.3,36-34.1c0-18.8-16.1-34.1-36-34.1c-19.9,0-36,15.3-36,34.1c0,0,0,0,0,0
		C95.9,57.7,112,73,131.8,73z"/>
	<path class="st0" d="M81.6,146.5h100.4c3.7,0,6.6-2.8,6.6-6.3c0,0,0,0,0,0v-23.8c0-17.9-13.2-33.4-31.7-37.2
		c-1-0.5-2.1-0.8-3.2-0.9h-43.9c-1.1,0-2.2,0.3-3.2,0.9C88.3,83,75,98.5,75,116.4v23.8C75,143.7,78,146.5,81.6,146.5L81.6,146.5z"/>
</g>
<path class="st1" d="M163.5,226.1c3.4,0,6.1-2.7,6.1-6.1c0-2.2-1.2-4.2-3.1-5.3L138,198.1V165c0-3.4-2.7-6.1-6.1-6.1
	s-6.1,2.7-6.1,6.1v33.1l-28.6,16.5c-2.9,1.7-3.9,5.4-2.2,8.4c1.1,1.9,3.1,3.1,5.3,3.1c1.1,0,2.1-0.3,3.1-0.8l28.6-16.5l28.6,16.5
	C161.4,225.8,162.5,226.1,163.5,226.1z"/>
<g>
	<path class="st0" d="M210.8,222.9c15,0,27.2-12.2,27.2-27.2c0-15-12.2-27.2-27.2-27.2c-15,0-27.2,12.2-27.2,27.2c0,0,0,0,0,0
		C183.6,210.7,195.8,222.9,210.8,222.9z"/>
	<path class="st0" d="M229.8,227.8c-0.7-0.4-1.6-0.7-2.4-0.7h-33.2c-0.8,0-1.7,0.3-2.4,0.7c-14,3-24,15.4-24,29.7v19
		c0,2.8,2.3,5,5,5c0,0,0,0,0,0h75.9c2.8,0,5-2.2,5-5l0,0v-19C253.8,243.2,243.8,230.8,229.8,227.8z"/>
</g>
<g>
	<path class="st0" d="M52.9,222.9c15,0,27.2-12.2,27.2-27.2c0-15-12.2-27.2-27.2-27.2c-15,0-27.2,12.2-27.2,27.2c0,0,0,0,0,0
		C25.7,210.7,37.9,222.9,52.9,222.9z"/>
	<path class="st0" d="M71.9,227.8c-0.7-0.4-1.6-0.7-2.4-0.7H36.3c-0.8,0-1.7,0.3-2.4,0.7c-14,3-24,15.4-24,29.7v19c0,2.8,2.3,5,5,5
		c0,0,0,0,0,0h75.9c2.8,0,5-2.2,5-5l0,0v-19C95.9,243.2,85.9,230.8,71.9,227.8z"/>
</g>
</svg>
