<?xml version="1.0" encoding="utf-8"?>
<!-- Generator: Adobe Illustrator 27.7.0, SVG Export Plug-In . SVG Version: 6.00 Build 0)  -->
<svg version="1.1"
	 id="Layer_1" xmlns:rdf="http://www.w3.org/1999/02/22-rdf-syntax-ns#" xmlns:dc="http://purl.org/dc/elements/1.1/" xmlns:svg="http://www.w3.org/2000/svg" xmlns:cc="http://creativecommons.org/ns#"
	 xmlns="http://www.w3.org/2000/svg" xmlns:xlink="http://www.w3.org/1999/xlink" x="0px" y="0px" viewBox="0 0 507 431"
	 style="enable-background:new 0 0 507 431;" xml:space="preserve">
<style type="text/css">
	.st0{fill:#3F776A;}
	.st1{fill:#2A4F46;}
	.st2{fill:#287E5F;}
</style>
<g>
	<path id="path7064" class="st0" d="M126.3,5.7c-7-0.1-14.2,1.6-20.7,5.3C86.7,22,80.2,46.3,91.2,65.3s35.3,25.4,54.2,14.4
		s25.4-35.2,14.4-54.2C152.6,13,139.7,6,126.3,5.7z M411.8,22.1c-6.4,0.2-12.8,1.9-18.8,5.3c-18.9,11-25.4,35.3-14.4,54.2
		S413.9,107,432.8,96s25.4-35.2,14.4-54.2C439.6,28.8,425.8,21.7,411.8,22.1z M53.9,161.7c-7-0.1-14.1,1.6-20.6,5.4
		c-18.9,11-25.4,35.2-14.4,54.2s35.3,25.4,54.2,14.4s25.4-35.2,14.4-54.2C80.2,169.1,67.3,162,53.9,161.7L53.9,161.7z M452.7,232.7
		c-6.4,0.2-12.8,1.9-18.8,5.3c-18.9,11-25.4,35.2-14.4,54.2c11,18.9,35.2,25.4,54.2,14.4c18.9-11,25.4-35.2,14.4-54.2
		C480.6,239.4,466.8,232.3,452.7,232.7z M172.7,346c-6.4,0.2-12.8,1.9-18.8,5.3c-18.9,11-25.4,35.3-14.4,54.2
		c11,18.9,35.3,25.4,54.2,14.4s25.4-35.2,14.4-54.2C200.5,352.7,186.7,345.6,172.7,346L172.7,346z"/>
	<path id="path7068" class="st1" d="M126.8,38.9c-4.4,0.2-7.9,4-7.7,8.4c0.1,2.5,1.3,4.7,3.4,6.2l78.6,58.3
		c2.8-4.6,6.1-8.9,9.8-12.8L132,40.6C130.5,39.4,128.7,38.8,126.8,38.9z M411,53.6c-1.5,0-3.1,0.4-4.4,1.2l-81.8,49.1
		c3.2,4.3,6,8.9,8.3,13.8l81.8-49.1c3.8-2.2,5.1-7.2,2.9-11C416.4,55.2,413.8,53.7,411,53.6z M190.8,159.4L53.1,193.8
		c-4.3,0.9-7.1,5.2-6.2,9.6c0.9,4.3,5.2,7.1,9.6,6.2c0.2,0,0.3-0.1,0.5-0.1l137.5-34.3c-1.7-4.9-3-9.9-3.6-15.1
		C190.8,159.8,190.8,159.6,190.8,159.4L190.8,159.4z M333,183.7c-2.4,4.8-5.3,9.3-8.7,13.5l120.3,78.1c3.7,2.4,8.7,1.4,11.1-2.4
		c2.4-3.7,1.4-8.7-2.4-11.1L333,183.7z M230.5,216.8l-62,161.8c-1.6,4.2,0.5,8.8,4.7,10.4c4.2,1.6,8.8-0.5,10.4-4.6l61.9-161.5
		C240.2,221.4,235.2,219.4,230.5,216.8z"/>
	<path id="path7078" class="st2" d="M235.3,98.3c28.7-16.7,65.5-6.9,82.2,21.8c16.7,28.7,6.9,65.5-21.8,82.2c0,0-0.1,0-0.1,0.1
		c-28.7,16.7-65.5,6.9-82.2-21.8c-16.7-28.7-6.9-65.5,21.8-82.2C235.2,98.3,235.2,98.3,235.3,98.3z"/>
</g>
</svg>
