<?xml version="1.0" encoding="utf-8"?>
<!-- Generator: Adobe Illustrator 27.7.0, SVG Export Plug-In . SVG Version: 6.00 Build 0)  -->
<svg version="1.1" id="Layer_1" xmlns="http://www.w3.org/2000/svg" xmlns:xlink="http://www.w3.org/1999/xlink" x="0px" y="0px"
	 viewBox="0 0 48.9 49.5" style="enable-background:new 0 0 48.9 49.5;" xml:space="preserve">
<style type="text/css">
	.st0{fill:#287E5F;}
</style>
<g>
	<path class="st0" d="M42.9,0.7c-3.1,0-5.5,2.5-5.5,5.5c0,1.2,0.4,2.3,1,3.2l-5.5,5.5c-2.5-2.1-5.7-3.4-9.2-3.4
		c-3.5,0-6.8,1.3-9.2,3.4l-4.2-4.2c0.8-1,1.3-2.2,1.3-3.6C11.5,4,9,1.6,6,1.6c-3,0-5.5,2.5-5.5,5.5c0,3.1,2.5,5.5,5.5,5.5
		c1,0,1.9-0.2,2.6-0.7c0,0,0,0,0,0l4.3,4.3c-2.2,2.5-3.5,5.7-3.5,9.2c0,3.5,1.3,6.8,3.5,9.2l-2.7,2.7c-0.9-0.6-1.9-0.9-3.1-0.9
		c-3,0-5.5,2.5-5.5,5.5s2.5,5.5,5.5,5.5s5.5-2.5,5.5-5.5c0-1.2-0.4-2.3-1-3.2l2.7-2.7c2.5,2.2,5.7,3.5,9.2,3.5
		c3.5,0,6.8-1.3,9.2-3.5l3.9,3.9c-0.7,0.9-1.1,2-1.1,3.2c0,3.1,2.5,5.5,5.5,5.5c3.1,0,5.5-2.5,5.5-5.5c0-3-2.5-5.5-5.5-5.5
		c-1.1,0-2.2,0.3-3,0.9l-4-4c2.2-2.5,3.5-5.7,3.5-9.2c0-3.5-1.3-6.8-3.5-9.2l5.5-5.5c0.9,0.6,2,1,3.1,1c3,0,5.5-2.5,5.5-5.5
		C48.5,3.2,46,0.7,42.9,0.7z M23.6,17.4c2.2,0,3.9,1.8,3.9,4s-1.8,4-3.9,4c-2.2,0-4-1.8-4-4S21.4,17.4,23.6,17.4z M30.1,33.3
		c-0.2,0.2-0.5,0.3-0.8,0.3H17.9c-0.3,0-0.6-0.1-0.8-0.3c-0.2-0.2-0.3-0.5-0.2-0.8c0.5-3.3,3.4-5.8,6.7-5.8c3.3,0,6.2,2.5,6.7,5.8
		C30.4,32.8,30.3,33.1,30.1,33.3z"/>
</g>
</svg>
