<?xml version="1.0" encoding="utf-8"?>
<!-- Generator: Adobe Illustrator 27.4.0, SVG Export Plug-In . SVG Version: 6.00 Build 0)  -->
<svg version="1.1" id="Layer_1" xmlns="http://www.w3.org/2000/svg" xmlns:xlink="http://www.w3.org/1999/xlink" x="0px" y="0px"
	 viewBox="0 0 22 20.6" style="enable-background:new 0 0 22 20.6;" xml:space="preserve">
<style type="text/css">
	.st0{fill:#287E5F;}
</style>
<g id="Layer_28">
	<path class="st0" d="M11.7,1.4c-2,0-4,0.7-5.6,1.9C5.7,3.6,5.6,4.3,6,4.7c0.3,0.4,1,0.5,1.4,0.2c1.2-1,2.8-1.5,4.3-1.5
		c3.9,0,7,3.1,7,7s-3.1,7-7,7c-2.5,0-4.8-1.3-6-3.5l1.7,0.4c0.5,0.1,1.1-0.2,1.2-0.7s-0.2-1.1-0.7-1.2l0,0L4,11.4
		c-0.5-0.1-1.1,0.2-1.2,0.7l-1,4c-0.1,0.5,0.2,1.1,0.7,1.2s1.1-0.2,1.2-0.7c0,0,0,0,0,0l0.4-1.5c2.6,4.2,8.2,5.5,12.4,2.9
		S22,9.8,19.4,5.6C17.7,3,14.8,1.4,11.7,1.4z"/>
	<path class="st0" d="M11.7,5.3c-0.6,0-1,0.4-1,1v4c0,0.3,0.1,0.5,0.3,0.7l1.9,2.1c0.4,0.4,1,0.5,1.4,0.1c0.4-0.4,0.5-1,0.1-1.4
		c0,0,0,0,0,0L12.7,10V6.3C12.7,5.8,12.3,5.3,11.7,5.3z"/>
	<circle class="st0" cx="4.7" cy="6.3" r="1"/>
	<circle class="st0" cx="3.7" cy="9.3" r="1"/>
</g>
</svg>
