<?xml version="1.0" encoding="utf-8"?>
<!-- Generator: Adobe Illustrator 27.3.1, SVG Export Plug-In . SVG Version: 6.00 Build 0)  -->
<svg version="1.1" xmlns="http://www.w3.org/2000/svg" xmlns:xlink="http://www.w3.org/1999/xlink" x="0px" y="0px"
	 viewBox="0 0 78 56" style="enable-background:new 0 0 78 56;" xml:space="preserve">
<style type="text/css">
	.st0{display:none;}
	.st1{display:inline;fill:#EF305E;}
	.st2{display:inline;}
	.st3{fill:#FFFFFF;}
	.st4{fill:url(#SVGID_1_);}
	.st5{fill:url(#SVGID_00000040575886335623940930000011203901070511365808_);}
	.st6{fill:url(#SVGID_00000179624087942817003360000013937796085976969856_);}
	.st7{fill:url(#SVGID_00000022548493389993237110000010841169069245968780_);}
	.st8{fill:url(#SVGID_00000029744953036606157930000013748897233819944619_);}
	.st9{fill:url(#SVGID_00000017490643048608197880000011006080066293022654_);}
	.st10{fill:url(#SVGID_00000145745062326638539080000014479407077918167943_);}
</style>
<g id="Layer_1" class="st0">
	<path class="st1" d="M61.1,2.8l15.2,47.4c0.8,2.6-1.1,5.2-3.8,5.2H61.3c-1.7,0-3.3-1.1-3.8-2.8l-15-47.4C41.7,2.6,43.6,0,46.3,0h11
		C59,0,60.6,1.1,61.1,2.8z"/>
	<g class="st2">
		<path class="st3" d="M46.5,37.8L35.8,3.4C35.2,1.4,33.3,0,31.1,0c-2.6,0-4.8,2.1-4.9,4.7l-1.3,25.7c0,0.9,0.1,1.8,0.3,2.7
			l5.8,19.5c0.5,1.7,2.1,2.9,3.8,2.9h5.4c1.7,0,3.3-1.1,3.8-2.8l2.4-7.5C47.3,42.7,47.3,40.2,46.5,37.8z"/>
		
			<linearGradient id="SVGID_1_" gradientUnits="userSpaceOnUse" x1="28.4837" y1="29.5209" x2="39.9837" y2="26.5209" gradientTransform="matrix(1 0 0 -1 0 56)">
			<stop  offset="0" style="stop-color:#000000;stop-opacity:0.25"/>
			<stop  offset="0.9115" style="stop-color:#FFFFFF;stop-opacity:0"/>
		</linearGradient>
		<path class="st4" d="M46.5,37.8L35.8,3.4C35.2,1.4,33.3,0,31.1,0c-2.6,0-4.8,2.1-4.9,4.7l-1.3,25.7c0,0.9,0.1,1.8,0.3,2.7
			l5.8,19.5c0.5,1.7,2.1,2.9,3.8,2.9h5.4c1.7,0,3.3-1.1,3.8-2.8l2.4-7.5C47.3,42.7,47.3,40.2,46.5,37.8z"/>
	</g>
	<path class="st1" d="M20.3,0h11C34,0,36,2.6,35.2,5.2L20.3,52.9c-0.5,1.7-2.1,2.8-3.8,2.8h-11c-2.7,0-4.6-2.6-3.8-5.2L16.5,2.8
		C17,1.1,18.6,0,20.3,0z"/>
</g>
<g id="Layer_2">
	<g>
		<g>
			
				<linearGradient id="SVGID_00000093899880353521667080000012915251447810045609_" gradientUnits="userSpaceOnUse" x1="13.4524" y1="3.0849" x2="51.7553" y2="63.0267">
				<stop  offset="0" style="stop-color:#FAAF43"/>
				<stop  offset="1" style="stop-color:#854F6E"/>
			</linearGradient>
			<path style="fill:url(#SVGID_00000093899880353521667080000012915251447810045609_);" d="M18.2,0.1l-4.9,7.6
				C9.8,13.1,10.2,20,14.2,25L39,55.9l12-14.9L18.2,0.1L18.2,0.1z"/>
			
				<linearGradient id="SVGID_00000164471981698028204250000005120154145495761047_" gradientUnits="userSpaceOnUse" x1="39.8207" y1="21.5298" x2="55.4228" y2="32.0535">
				<stop  offset="0" style="stop-color:#854F6E"/>
				<stop  offset="5.998689e-02" style="stop-color:#A46863"/>
				<stop  offset="0.1274" style="stop-color:#BF7E59"/>
				<stop  offset="0.2049" style="stop-color:#D59051"/>
				<stop  offset="0.2954" style="stop-color:#E69E4B"/>
				<stop  offset="0.4072" style="stop-color:#F1A846"/>
				<stop  offset="0.5642" style="stop-color:#F8AD44"/>
				<stop  offset="1" style="stop-color:#FAAF43"/>
			</linearGradient>
			<path style="fill:url(#SVGID_00000164471981698028204250000005120154145495761047_);" d="M59.8,0.1l4.9,7.6
				c3.4,5.3,3.1,12.2-0.9,17.2L39,55.9L27,40.9L59.8,0.1L59.8,0.1z"/>
			
				<linearGradient id="SVGID_00000003067830962179942420000013203284516707314603_" gradientUnits="userSpaceOnUse" x1="42.877" y1="41.3768" x2="16.9834" y2="19.7987">
				<stop  offset="0" style="stop-color:#6E3F97"/>
				<stop  offset="1" style="stop-color:#FFFFFF"/>
			</linearGradient>
			<polygon style="fill:url(#SVGID_00000003067830962179942420000013203284516707314603_);" points="13,23.6 39,55.9 38.9,26.1 
				38.9,25.9 25.5,9.2 			"/>
		</g>
		<g>
			
				<linearGradient id="SVGID_00000181076615344451093860000002548182805104733063_" gradientUnits="userSpaceOnUse" x1="29.4764" y1="8.1637" x2="49.0824" y2="8.1637">
				<stop  offset="0" style="stop-color:#FAAF43"/>
				<stop  offset="1" style="stop-color:#FAAF43"/>
			</linearGradient>
			<path style="fill:url(#SVGID_00000181076615344451093860000002548182805104733063_);" d="M32.2,0.2h14.2c2.3,0,3.6,2.6,2.1,4.4
				l-9.2,11.4L30.1,4.7C28.7,2.9,29.9,0.2,32.2,0.2z"/>
			<g>
				
					<linearGradient id="SVGID_00000073681483636478404980000007479436265496841135_" gradientUnits="userSpaceOnUse" x1="23.4312" y1="34.182" x2="36.9412" y2="18.0815">
					<stop  offset="0" style="stop-color:#FAAF43"/>
					<stop  offset="1" style="stop-color:#FAAF43"/>
				</linearGradient>
				<path style="fill:url(#SVGID_00000073681483636478404980000007479436265496841135_);" d="M18.2,0.2l-4.9,7.6
					c-3.4,5.3-3,12.2,0.9,17.1L39,55.8l12-14.9L18.2,0.2L18.2,0.2z"/>
				
					<linearGradient id="SVGID_00000054954348490897252380000015572734837514122136_" gradientUnits="userSpaceOnUse" x1="43.5723" y1="22.1908" x2="55.0288" y2="33.6473">
					<stop  offset="0" style="stop-color:#FAAF43"/>
					<stop  offset="1" style="stop-color:#FAAF43"/>
				</linearGradient>
				<path style="fill:url(#SVGID_00000054954348490897252380000015572734837514122136_);" d="M59.8,0.2l4.9,7.6
					c3.4,5.3,3,12.2-0.9,17.1L39,55.8L27,40.9L59.8,0.2L59.8,0.2z"/>
			</g>
		</g>
	</g>
</g>
</svg>
