<?xml version="1.0" encoding="utf-8"?>
<!-- Generator: Adobe Illustrator 27.3.1, SVG Export Plug-In . SVG Version: 6.00 Build 0)  -->
<svg version="1.1" xmlns="http://www.w3.org/2000/svg" xmlns:xlink="http://www.w3.org/1999/xlink" x="0px" y="0px"
	 viewBox="0 0 440.7 209.1" style="enable-background:new 0 0 440.7 209.1;" xml:space="preserve">
<style type="text/css">
	.st0{fill:#FFFFFF;}
	.st1{fill:#092B49;}
	.st2{fill:#FBB044;}
</style>
<g id="Layer_2">
	<rect class="st0" width="440.7" height="209.1"/>
</g>
<g id="Layer_1">
	<g>
		<g>
			<g>
				<path class="st1" d="M154.9,81.6H140v6.7l15.1,1.7c0.3,13.8,0.3,27.7,0.3,41.5h-53.3c0-14,0-27.9,0.3-41.5l15.1-1.7v-6.7h-14.9
					H86H71v6.7L86.2,90c0.3,14.2,0.3,28.5,0.3,42.6v8.1c0,14.4,0,28.6-0.3,42.6L71,185v6.7h15h16.5h14.9V185l-15.1-1.7
					c-0.3-13.8-0.3-28-0.3-44.2h53.3c0,16.3,0,30.6-0.3,44.2l-15.1,1.7v6.7h14.9h16.5h15V185l-15.2-1.7c-0.3-14.2-0.3-28.5-0.3-42.6
					v-8.1c0-14.4,0-28.6,0.3-42.6l15.2-1.7v-6.7h-15L154.9,81.6L154.9,81.6z"/>
				<path class="st1" d="M282.4,81.6h-14.9v6.7l15.1,1.7c0.3,13.8,0.3,27.7,0.3,41.5h-53.3c0-14,0-27.9,0.3-41.5l15.1-1.7v-6.7
					h-14.9h-16.5h-15v6.7l15.2,1.7c0.3,14.2,0.3,28.5,0.3,42.6v8.1c0,14.4,0,28.6-0.3,42.6l-15.2,1.7v6.7h15h16.5H245V185l-15.1-1.7
					c-0.3-13.8-0.3-28-0.3-44.2h53.3c0,16.3,0,30.6-0.3,44.2l-15.1,1.7v6.7h14.9H299h15V185l-15.2-1.7c-0.3-14.2-0.3-28.5-0.3-42.6
					v-8.1c0-14.4,0-28.6,0.3-42.6l15.2-1.7v-6.7h-15L282.4,81.6L282.4,81.6z"/>
				<path class="st1" d="M367,129.4l-6.5-2.5c-11.9-4.6-18.6-10.6-18.6-20.9c0-12.2,9.6-18.6,22.3-18.6c5,0,9.2,1,13.4,3.3l3.4,18.6
					h10.2l1-21.5c-7.1-5.3-16-8.7-27.1-8.7c-21.2,0-37.1,11.6-37.1,30.6c0,16.9,11.5,26.5,28.5,33.2l6.3,2.5
					c14.1,5.5,20.4,10.3,20.4,20.9c0,12.6-10.1,19.9-25.6,19.9c-7.1,0-12-1.3-17.3-4.2l-3.3-19.3h-10.2l-1,23.1
					c7.7,4.8,19.8,8.7,32.2,8.7c22.9,0,39.1-12,39.1-31.4C397.1,147.4,388.7,137.9,367,129.4z"/>
			</g>
			<g>
				<path class="st1" d="M81.5,17.3V58H71.2V17.3H81.5z"/>
				<path class="st1" d="M134.4,37.6c0,11.4-8.1,20.9-22.7,20.9c-14.7,0-22.5-9.8-22.5-20.8c0-10.1,6.7-21,22.7-21
					C125.9,16.7,134.4,25.9,134.4,37.6z M99.7,37.7c0,7,5,11.9,12,11.9c7.2,0,12.2-4.5,12.2-12c0-6.4-4.3-11.9-12.1-11.9
					C104.3,25.7,99.7,30.6,99.7,37.7z"/>
				<path class="st1" d="M146.2,17.3l9.3,24.2l10.2-24.2h7.8l10,24.2l9.5-24.2h10.4l-17.2,41.1h-5.3l-11.4-26.7L158,58.4h-5.4
					l-16.9-41.1H146.2z"/>
				<path class="st1" d="M227,17.2L244.9,58h-10.5l-3.9-9.4H213l-3.9,9.4h-10.5l17.7-40.8H227z M215.6,42h12.1l-6.1-14.8L215.6,42z"
					/>
			</g>
		</g>
		<rect class="st2" width="19.7" height="209.1"/>
	</g>
</g>
</svg>
