<?xml version="1.0" encoding="utf-8"?>
<!-- Generator: Adobe Illustrator 27.3.1, SVG Export Plug-In . SVG Version: 6.00 Build 0)  -->
<svg version="1.1" id="Layer_1" xmlns="http://www.w3.org/2000/svg" xmlns:xlink="http://www.w3.org/1999/xlink" x="0px" y="0px"
	 viewBox="0 0 123.9 49.1" style="enable-background:new 0 0 123.9 49.1;" xml:space="preserve">
<style type="text/css">
	.st0{fill:#FFFFFF;}
	.st1{fill:#092B49;}
	.st2{fill:#C48D34;}
</style>
<g id="Layer_2_00000106149745120176155750000005087767400737381770_">
	<rect class="st0" width="123.9" height="49.1"/>
</g>
<g>
	<g>
		<path class="st1" d="M47.6,20.6h-3.1V22l3.1,0.3c0.1,2.9,0.1,5.7,0.1,8.5H36.7c0-2.9,0-5.7,0.1-8.5l3.1-0.3v-1.3h-3.1h-3.4h-3.1
			V22l3.1,0.3c0.1,2.9,0.1,5.8,0.1,8.8v1.7c0,3,0,5.8-0.1,8.8l-3.1,0.3v1.4h3.1h3.4h3.1v-1.3l-3.1-0.4c0-2.8,0-5.8,0-9.1h11
			c0,3.4,0,6.3-0.1,9.1l-3.1,0.3v1.4h3.1h3.4h3v-1.3l-3.1-0.3C51,38.7,51,35.8,51,32.8v-1.7c0-3,0-5.8,0.1-8.8l3.1-0.3v-1.3h-3.1
			L47.6,20.6L47.6,20.6z"/>
		<path class="st1" d="M73.9,20.6h-3.1V22l3.1,0.3c0.1,2.9,0.1,5.7,0.1,8.5h-11c0-2.9,0-5.7,0.1-8.5l3.1-0.3v-1.3H63h-3.4h-3.1V22
			l3.1,0.3c0.1,2.9,0.1,5.8,0.1,8.8v1.7c0,3,0,5.8-0.1,8.8l-3.1,0.3v1.4h3.1H63h3.1v-1.3L63,41.6c-0.1-2.9-0.1-5.8-0.1-9.1h11
			c0,3.4,0,6.3-0.1,9.1l-3.1,0.3v1.3h3.1h3.4h3.1v-1.3l-3.1-0.3c-0.1-2.9-0.1-5.8-0.1-8.8v-1.7c0-3,0-5.8,0.1-8.8l3.1-0.3v-1.3h-3.1
			L73.9,20.6L73.9,20.6z"/>
		<path class="st1" d="M91.3,30.5L89.9,30c-2.5-1-3.8-2.2-3.8-4.3c0-2.5,2-3.8,4.6-3.8c1.1,0,1.9,0.2,2.8,0.7l0.7,3.8h2.1l0.2-4.4
			c-1.5-1.1-3.3-1.8-5.6-1.8c-4.4,0-7.6,2.4-7.6,6.3c0,3.5,2.4,5.5,5.8,6.9l1.3,0.5c2.9,1.1,4.2,2.1,4.2,4.3c0,2.6-2.1,4.1-5.3,4.1
			c-1.5,0-2.5-0.3-3.5-0.9l-0.7-4H83l-0.3,4.7c1.6,1,4.1,1.8,6.6,1.8c4.7,0,8-2.5,8-6.5C97.5,34.2,95.7,32.3,91.3,30.5z"/>
	</g>
	<g>
		<path class="st1" d="M32.5,7.4v8.4h-2.1V7.4H32.5z"/>
		<path class="st1" d="M43.4,11.6c0,2.4-1.7,4.3-4.7,4.3s-4.7-2-4.7-4.3c0-2.1,1.3-4.3,4.7-4.3C41.6,7.3,43.4,9.2,43.4,11.6z
			 M36.2,11.6c0,1.5,1.1,2.5,2.5,2.5c1.5,0,2.5-0.9,2.5-2.5c0-1.3-0.9-2.5-2.5-2.5C37.1,9.1,36.2,10.1,36.2,11.6z"/>
		<path class="st1" d="M45.8,7.4l1.9,5l2.1-5h1.6l2.1,5l2-5h2.1L54,15.9H53l-2.4-5.5l-2.4,5.5h-1.1l-3.5-8.4
			C43.6,7.4,45.8,7.4,45.8,7.4z"/>
		<path class="st1" d="M62.4,7.4l3.7,8.4h-2.1l-0.8-1.9h-3.6l-0.8,1.9h-2.1l3.7-8.4C60.3,7.4,62.4,7.4,62.4,7.4z M60.1,12.5h2.5
			l-1.3-3.1L60.1,12.5z"/>
	</g>
</g>
<rect class="st2" width="9" height="49.1"/>
</svg>
