<?xml version="1.0" encoding="utf-8"?>
<!-- Generator: Adobe Illustrator 27.3.1, SVG Export Plug-In . SVG Version: 6.00 Build 0)  -->
<svg version="1.1" id="Layer_1" xmlns="http://www.w3.org/2000/svg" xmlns:xlink="http://www.w3.org/1999/xlink" x="0px" y="0px"
	 viewBox="0 0 168.7 49.1" style="enable-background:new 0 0 168.7 49.1;" xml:space="preserve">
<style type="text/css">
	.st0{fill:#FFFFFF;}
	.st1{fill:#C48D34;}
	.st2{fill:#1B365F;}
</style>
<g id="Layer_2_00000106149745120176155750000005087767400737381770_">
	<rect class="st0" width="168.7" height="49.1"/>
</g>
<rect class="st1" width="7.1" height="49.1"/>
<g>
	<g>
		<g>
			<path class="st2" d="M18.4,8.1v1.1c-0.5-0.4-0.9-0.5-1.4-0.5c-0.4,0-0.6,0.2-0.6,0.4c0,0.2,0.1,0.4,0.7,0.7
				c0.8,0.4,1.4,0.8,1.4,1.6c0,0.9-0.7,1.4-1.7,1.4c-0.5,0-1.1-0.2-1.6-0.4v-1.1c0.5,0.4,1,0.6,1.4,0.6s0.6-0.2,0.6-0.4
				c0-0.2-0.1-0.4-0.9-0.8c-0.5-0.3-1.2-0.7-1.2-1.5c0-0.7,0.6-1.4,1.6-1.4C17.5,7.7,18,7.9,18.4,8.1z"/>
			<path class="st2" d="M23.7,7.8v1H22v3.9h-1.2V8.8H19v-1H23.7z"/>
			<path class="st2" d="M26.7,7.8l2.1,4.9h-1.2l-0.5-1.1H25l-0.5,1.1h-1.2l2.1-4.9H26.7z M25.3,10.8h1.4L26,9L25.3,10.8z"/>
			<path class="st2" d="M33,7.8v1h-1.8v3.9H30V8.8h-1.7v-1H33z"/>
			<path class="st2" d="M37,7.8v0.9h-2.1v1.1h2v0.9h-2v1.2h2.2v0.9h-3.4V7.8L37,7.8L37,7.8z"/>
			<path class="st2" d="M45.2,10.2c0,1.4-1,2.5-2.7,2.5s-2.7-1.2-2.7-2.5c0-1.2,0.8-2.5,2.7-2.5C44.2,7.7,45.2,8.8,45.2,10.2z
				 M41,10.2c0,0.8,0.6,1.4,1.4,1.4c0.9,0,1.4-0.5,1.4-1.4c0-0.8-0.5-1.4-1.4-1.4C41.6,8.8,41,9.4,41,10.2z"/>
			<path class="st2" d="M49.2,7.8v0.9h-2v1.1h2v0.9h-2v2.1H46V7.8H49.2z"/>
			<path class="st2" d="M53.4,7.8v4.9h-1.2V7.8H53.4z"/>
			<path class="st2" d="M59.6,10.2c0,1.4-1,2.5-2.7,2.5s-2.7-1.2-2.7-2.5c0-1.2,0.8-2.5,2.7-2.5C58.6,7.7,59.6,8.8,59.6,10.2z
				 M55.4,10.2c0,0.8,0.6,1.4,1.4,1.4c0.9,0,1.4-0.5,1.4-1.4c0-0.8-0.5-1.4-1.4-1.4C56,8.8,55.4,9.4,55.4,10.2z"/>
			<path class="st2" d="M60.9,7.8l1.1,2.9l1.2-2.9h0.9l1.2,2.9l1.1-2.9h1.2l-2.1,4.9H65l-1.4-3.2l-1.4,3.2h-0.6l-2-4.9H60.9z"/>
			<path class="st2" d="M70.7,7.8l2.1,4.9h-1.2l-0.5-1.1h-2.1l-0.5,1.1h-1.3l2.1-4.9H70.7z M69.4,10.8h1.4L70.1,9L69.4,10.8z"/>
			<path class="st2" d="M77.5,7.8c1.8,0,2.8,1,2.8,2.4c0,1.5-0.9,2.5-2.7,2.5h-2.1V7.8H77.5z M77.5,11.8c1.1,0,1.6-0.5,1.6-1.5
				s-0.6-1.6-1.6-1.6h-0.7v3.1H77.5z"/>
			<path class="st2" d="M84.5,7.8v0.9h-2.1v1.1h2v0.9h-2v1.2h2.2v0.9h-3.4V7.8L84.5,7.8L84.5,7.8z"/>
			<path class="st2" d="M87.5,7.8c1.1,0,1.8,0.5,1.8,1.5c0,0.8-0.5,1.5-1.7,1.5h-0.9v1.9h-1.2V7.8H87.5z M86.7,9.9h0.6
				c0.5,0,0.7-0.2,0.7-0.6c0-0.5-0.2-0.7-0.8-0.7h-0.6L86.7,9.9L86.7,9.9z"/>
			<path class="st2" d="M92.5,7.8l2.1,4.9h-1.2l-0.5-1.1h-2.1l-0.5,1.1h-1.2l2.1-4.9H92.5z M91.1,10.8h1.4L91.9,9L91.1,10.8z"/>
			<path class="st2" d="M97.2,7.8c1.1,0,1.7,0.6,1.7,1.5c0,0.5-0.3,1-0.8,1.2c0.3,0.2,0.5,0.4,0.8,1l0.6,1.2h-1.3l-0.6-1.1
				c-0.4-0.7-0.6-0.9-1.1-0.9h-0.2v2h-1.2V7.8L97.2,7.8L97.2,7.8z M96.4,9.9h0.5c0.5,0,0.8-0.1,0.8-0.6c0-0.4-0.2-0.7-0.8-0.7h-0.5
				L96.4,9.9L96.4,9.9z"/>
			<path class="st2" d="M104.3,7.8v1h-1.8v3.9h-1.2V8.8h-1.7v-1H104.3z"/>
			<path class="st2" d="M106,7.8l1.5,1.9l1.5-1.9h1.1v4.9H109V9.6l-1.4,1.7h-0.1l-1.4-1.7v3.1h-1.2V7.8H106z"/>
			<path class="st2" d="M114.6,7.8v0.9h-2.1v1.1h2v0.9h-2v1.2h2.2v0.9h-3.4V7.8L114.6,7.8L114.6,7.8z"/>
			<path class="st2" d="M116.7,7.8l2.7,3v-3h1.2v4.9h-1.1l-2.7-3v3h-1.2V7.8H116.7z"/>
			<path class="st2" d="M126,7.8v1h-1.8v3.9H123V8.8h-1.7v-1H126z"/>
			<path class="st2" d="M133.9,10.2c0,1.4-1,2.5-2.7,2.5s-2.7-1.2-2.7-2.5c0-1.2,0.8-2.5,2.7-2.5C132.9,7.7,133.9,8.8,133.9,10.2z
				 M129.8,10.2c0,0.8,0.6,1.4,1.4,1.4c0.9,0,1.4-0.5,1.4-1.4c0-0.8-0.5-1.4-1.4-1.4C130.3,8.8,129.8,9.4,129.8,10.2z"/>
			<path class="st2" d="M137.9,7.8v0.9h-2v1.1h2v0.9h-2v2.1h-1.2V7.8H137.9z"/>
		</g>
		<g>
			<path class="st2" d="M28.7,17.6h-2.2l0,0h-2v0.9l2,0.2c0,1.8,0,3.7,0,5.5h-7.1c0-1.9,0-3.7,0-5.5l2-0.2v-0.9h-2l0,0h-2.2l0,0h-2
				v0.9l2,0.2c0,1.9,0,3.8,0,5.7v1.1c0,1.9,0,3.8,0,5.6l-2,0.2v0.9h2h2.2h2v-0.9l-2-0.2c0-1.8,0-3.7,0-5.8h7.1c0,2.1,0,4,0,5.8
				l-2,0.2v0.9h6.2v-0.9l-2-0.2c0-1.9,0-3.7,0-5.6v-1.1c0-1.9,0-3.8,0-5.7l2-0.2v-0.9L28.7,17.6L28.7,17.6z"/>
			<path class="st2" d="M40.7,25.8c0-2.6-1.8-4.2-4.1-4.2c-2.7,0-5,2.2-5,5.6s1.9,5.4,4.9,5.4c2,0,3.4-1,4.2-2.5l-0.5-0.4
				c-0.8,0.9-1.7,1.6-3.1,1.6c-2.1,0-3.5-1.4-3.6-4.1h7C40.7,26.8,40.7,26.3,40.7,25.8z M37.6,26.1h-4c0.2-2.5,1.6-3.5,2.9-3.5
				c1.4,0,2.4,1.1,2.4,2.4C38.9,25.6,38.6,26.1,37.6,26.1z"/>
			<path class="st2" d="M51.1,31.5c-0.5,0-0.8-0.4-0.8-1.3v-4.7c0-2.8-1.1-3.8-3.4-3.8s-3.9,1-4.3,2.7c0,0.6,0.4,0.9,1,0.9
				c0.6,0,0.9-0.4,1.1-1l0.4-1.5c0.4-0.1,0.8-0.1,1.2-0.1c1.4,0,2,0.5,2,2.6v0.6c-0.9,0.2-1.8,0.5-2.5,0.7c-3,1-3.6,2-3.6,3.3
				c0,1.8,1.4,2.7,3,2.7c1.3,0,2-0.6,3.2-1.8c0.2,1.1,0.9,1.7,2,1.8c0.8,0,1.4-0.3,1.9-1.1L51.9,31C51.7,31.3,51.5,31.5,51.1,31.5z
				 M44.3,29.5c0-0.7,0.3-1.5,2.2-2.2c0.5-0.2,1.2-0.4,2-0.7v3.3c-1.3,0.9-1.7,1.2-2.4,1.2C45,31.1,44.3,30.7,44.3,29.5z"/>
			<path class="st2" d="M56.4,27.7v-8.3l0.1-3.1l-0.3-0.2L52.8,17v0.8l1.8,0.2v9.6c0,1.2,0,2.3,0,3.5l-1.7,0.3v0.8h5.4v-0.8
				l-1.8-0.3C56.4,30,56.4,28.9,56.4,27.7z"/>
			<path class="st2" d="M63.5,31.5c-0.7,0-1.2-0.5-1.2-1.7V23h3v-1.1h-3l0.1-3.1H61l-0.5,3L58.6,22v1h1.8v5.2c0,0.9,0,1.4,0,1.9
				c0,1.7,0.9,2.5,2.5,2.5c1.1,0,2-0.4,2.6-1.1l-0.5-0.6C64.4,31.3,63.9,31.5,63.5,31.5z"/>
			<path class="st2" d="M78,31.4l-1.5-0.3c0-1.1,0-2.4,0-3.4v-2.1c0-2.9-0.9-4.1-2.8-4.1c-1.4,0-3,0.8-4.1,2v-4.3l0.1-3.1l-0.3-0.2
				l-3.4,1v0.8l1.8,0.2h0v9.6c0,1,0,2.4,0,3.5l-1.6,0.3v0.8h5.1v-0.8l-1.5-0.3c0-1.1,0-2.6,0-3.5v-3c1.2-1,2.1-1.4,3.1-1.4
				c1.3,0,1.8,0.6,1.8,2.6v1.9c0,1,0,2.3,0,3.4l-1.6,0.3v0.8h1.6h2H78L78,31.4L78,31.4z"/>
		</g>
		<g>
			<path class="st2" d="M104.8,25.5v-1.1c0-1.9,0-3.8,0-5.7l2-0.2v-0.9h-2h-2.2h-2v0.9l2,0.2c0,1.8,0,3.7,0,5.5h-7.1
				c0-1.9,0-3.7,0-5.5l2-0.2v-0.9h-2h-2.2h-2v0.9l2,0.2c0,1.9,0,3.8,0,5.7v1.1c0,1.9,0,3.8,0,5.6l-2,0.2v0.9h2h2.2h2v-0.9l-2-0.2
				c0-1.8,0-3.7,0-5.8h7.1c0,2.1,0,4,0,5.8l-2,0.2v0.9h2h2.2h2v-0.9l-2-0.2C104.8,29.3,104.8,27.4,104.8,25.5z"/>
			<path class="st2" d="M117.3,25l0-3.1l-0.2-0.2L114,22v0.8l1.6,0.3l0,6.5c-1,0.9-2,1.4-3,1.4c-1.2,0-1.8-0.7-1.8-2.6h0V25l0.1-3.1
				l-0.2-0.2l-3.2,0.3v0.8l1.6,0.3l0,5.5c0,2.9,1.1,3.9,2.8,3.9c1.3,0,2.7-0.6,3.9-2l0.2,1.9l3-0.2v-0.8l-1.5-0.3L117.3,25L117.3,25
				z"/>
			<path class="st2" d="M136.4,27.7v-2.3c0-2.7-1-3.8-2.8-3.9c-1.4,0-2.9,0.7-4,2.1c-0.4-1.4-1.2-2-2.6-2c-1.4,0-2.8,0.9-3.9,2
				l-0.2-1.8l-0.3-0.2l-3.1,1.4v0.8l1.7,0.2c0,0.9,0,1.6,0,2.7v1c0,1,0,2.4,0,3.5l-1.6,0.3v0.8h5.1v-0.8l-1.5-0.3c0-1.1,0-2.6,0-3.5
				v-3.1c1.1-0.9,1.9-1.3,2.9-1.3c1.3,0,1.8,0.6,1.8,2.6v1.9c0,1,0,2.4,0,3.4l-1.6,0.3v0.8h5.1v-0.8l-1.5-0.3c0-1.1,0-2.5,0-3.4
				v-2.1c0-0.4,0-0.8-0.1-1.2c1.1-1,2-1.4,3-1.4c1.2,0,1.8,0.6,1.8,2.6v1.9c0,1,0,2.4,0,3.5l-1.6,0.3v0.8h5.1v-0.8l-1.5-0.3
				C136.4,30.1,136.4,28.7,136.4,27.7z"/>
			<path class="st2" d="M147.5,31.5c-0.5,0-0.8-0.4-0.8-1.3v-4.7c0-2.8-1.1-3.8-3.4-3.8s-3.9,1-4.3,2.7c0,0.6,0.4,0.9,1,0.9
				s0.9-0.4,1.1-1l0.4-1.5c0.4-0.1,0.8-0.1,1.2-0.1c1.4,0,2,0.5,2,2.6v0.6c-0.9,0.2-1.8,0.5-2.5,0.7c-3,1-3.6,2.1-3.6,3.3
				c0,1.8,1.4,2.7,3,2.7c1.3,0,2-0.6,3.2-1.8c0.2,1.1,0.9,1.7,2,1.8c0.8,0,1.4-0.3,1.9-1.1l-0.5-0.5
				C148.1,31.3,147.8,31.5,147.5,31.5z M140.6,29.5c0-0.7,0.3-1.5,2.2-2.2c0.5-0.2,1.2-0.4,2-0.7v3.3c-1.3,0.9-1.7,1.2-2.4,1.2
				C141.4,31.1,140.6,30.7,140.6,29.5z"/>
			<path class="st2" d="M161.6,31.5l-1.5-0.3c0-1.1,0-2.5,0-3.4v-2.1c0-2.9-0.9-4.1-2.8-4.1c-1.4,0-2.9,0.8-4,2l-0.2-1.8l-0.3-0.2
				l-3.1,1.4v0.8l1.7,0.2c0,0.9,0,1.6,0,2.7v1c0,1,0,2.4,0,3.5l-1.6,0.3v0.8h1.6l0,0h3.5v-0.8l-1.6-0.3c0-1.1,0-2.5,0-3.5v-3.1
				c1.1-0.9,2-1.3,3-1.3c1.3,0,1.8,0.6,1.8,2.6v1.9c0,1,0,2.4,0,3.4l-1.6,0.3v0.8h5.1L161.6,31.5L161.6,31.5z M151.5,32.2
				L151.5,32.2C151.5,32.2,151.5,32.2,151.5,32.2L151.5,32.2z"/>
		</g>
		<g>
			<g>
				<path class="st2" d="M82.1,25.1l1.2,2.7h-0.7l-0.3-0.6h-1.2l-0.3,0.6h-0.7l1.2-2.7H82.1z M81.3,26.8h0.8l-0.4-1L81.3,26.8z"/>
				<path class="st2" d="M84.3,25.1l1.5,1.7v-1.7h0.7v2.7h-0.6l-1.5-1.7v1.7h-0.7v-2.7H84.3z"/>
				<path class="st2" d="M88.3,25.1c1,0,1.5,0.6,1.5,1.3c0,0.9-0.5,1.4-1.5,1.4h-1.2v-2.7L88.3,25.1L88.3,25.1z M88.3,27.3
					c0.6,0,0.9-0.3,0.9-0.9s-0.3-0.9-0.9-0.9h-0.4v1.7L88.3,27.3L88.3,27.3z"/>
			</g>
		</g>
	</g>
	<g>
		<path class="st2" d="M18.3,38.8v1c-0.5-0.4-0.9-0.5-1.3-0.5c-0.4,0-0.6,0.2-0.6,0.4c0,0.2,0.1,0.4,0.7,0.7
			c0.8,0.4,1.4,0.8,1.4,1.6c0,0.9-0.7,1.4-1.7,1.4c-0.5,0-1.1-0.2-1.6-0.4v-1.1c0.5,0.4,1,0.6,1.4,0.6s0.6-0.2,0.6-0.4
			c0-0.2-0.1-0.4-0.9-0.8c-0.5-0.3-1.2-0.7-1.2-1.5c0-0.7,0.6-1.3,1.6-1.3C17.3,38.4,17.9,38.5,18.3,38.8z"/>
		<path class="st2" d="M22.6,38.4v0.9h-2.1v1.1h2v0.9h-2v1.2h2.1v0.9h-3.4v-4.9L22.6,38.4L22.6,38.4z"/>
		<path class="st2" d="M25.6,38.4c1.1,0,1.7,0.6,1.7,1.5c0,0.5-0.3,1-0.8,1.2c0.3,0.2,0.5,0.4,0.8,1l0.6,1.2h-1.3L26,42.2
			c-0.4-0.7-0.6-0.9-1-0.9h-0.2v1.9h-1.2v-4.9H25.6z M24.8,40.5h0.5c0.5,0,0.8-0.1,0.8-0.6c0-0.4-0.2-0.7-0.7-0.7h-0.5V40.5z"/>
		<path class="st2" d="M29,38.4l1.2,3l1.2-3h1.3l-2.1,4.9h-0.7l-2.1-4.9H29z"/>
		<path class="st2" d="M34.4,38.4v4.9h-1.2v-4.9H34.4z"/>
		<path class="st2" d="M39.8,38.8v1.1c-0.5-0.4-1.1-0.5-1.6-0.5c-1.1,0-1.7,0.7-1.7,1.5c0,0.8,0.6,1.5,1.6,1.5
			c0.6,0,1.1-0.2,1.7-0.5v1.1c-0.5,0.3-1.2,0.4-1.9,0.4c-1.7,0-2.7-1.1-2.7-2.5c0-1.5,1.2-2.5,2.7-2.5
			C38.5,38.4,39.1,38.5,39.8,38.8z"/>
		<path class="st2" d="M44,38.4v0.9h-2.1v1.1h2v0.9h-2v1.2h2.1v0.9h-3.4v-4.9L44,38.4L44,38.4z"/>
		<path class="st2" d="M47.9,38.8v1c-0.5-0.4-0.9-0.5-1.3-0.5c-0.4,0-0.6,0.2-0.6,0.4c0,0.2,0.1,0.4,0.7,0.7
			c0.8,0.4,1.4,0.8,1.4,1.6c0,0.9-0.7,1.4-1.7,1.4c-0.5,0-1.1-0.2-1.6-0.4v-1.1c0.5,0.4,1,0.6,1.4,0.6s0.6-0.2,0.6-0.4
			c0-0.2-0.1-0.4-0.9-0.8c-0.5-0.3-1.2-0.7-1.2-1.5c0-0.7,0.6-1.3,1.6-1.3C47,38.4,47.5,38.5,47.9,38.8z"/>
	</g>
</g>
</svg>
