<?xml version="1.0" encoding="utf-8"?>
<!-- Generator: Adobe Illustrator 27.7.0, SVG Export Plug-In . SVG Version: 6.00 Build 0)  -->
<svg version="1.1" id="Layer_1" xmlns="http://www.w3.org/2000/svg" xmlns:xlink="http://www.w3.org/1999/xlink" x="0px" y="0px"
	 viewBox="0 0 381.2 295.2" style="enable-background:new 0 0 381.2 295.2;" xml:space="preserve">
<style type="text/css">
	.st0{fill:#287E5F;}
</style>
<g>
	<path id="XMLID_1288_" class="st0" d="M59,170.4v92.7c0,15.9,12.7,29.7,28.7,29.7H138v-78.4c0-19.1,15.2-34.6,34.3-34.6h36.2
		c19.1,0,35.4,15.5,35.4,34.6v78.4h49.3c15.9,0,28.7-13.7,28.7-29.7v-92.7l-131.5-110L59,170.4z"/>
	<path id="XMLID_1287_" class="st0" d="M373.5,147.3l-57.5-48V38.5c0-8-7.2-13.6-15.1-13.6H276c-8,0-15,5.7-15,13.6v16.3L204.1,7.4
		c-4.1-3.4-8.8-5-13.7-5c-4.9,0-9.8,1.6-13.8,5L7.8,147.3c-9.2,7.6-10.5,21.3-2.8,30.5c4.3,5.2,10.5,7.8,16.7,7.8
		c4.9,0,9.8-1.6,13.8-5l155-128.5l155,128.5c4,3.4,8.9,5,13.8,5c6.2,0,12.6-2.7,16.9-7.8C383.8,168.5,382.7,154.9,373.5,147.3z"/>
	<g id="Layer_1_00000168094435230994495590000003573819046234714259_">
	</g>
</g>
</svg>
