<?xml version="1.0" encoding="utf-8"?>
<!-- Generator: Adobe Illustrator 27.8.1, SVG Export Plug-In . SVG Version: 6.00 Build 0)  -->
<svg version="1.1" id="Layer_1" xmlns="http://www.w3.org/2000/svg" xmlns:xlink="http://www.w3.org/1999/xlink" x="0px" y="0px"
	 viewBox="0 0 41.6 58.7" style="enable-background:new 0 0 41.6 58.7;" xml:space="preserve">
<style type="text/css">
	.st0{fill:#287E5F;}
</style>
<g>
	<path class="st0" d="M32.8,37.4h-24v14h24V37.4z M29.8,48.4h-18c-0.6,0-1-0.4-1-1s0.4-1,1-1h18c0.6,0,1,0.4,1,1
		S30.4,48.4,29.8,48.4z M29.8,42.4h-18c-0.6,0-1-0.4-1-1s0.4-1,1-1h18c0.6,0,1,0.4,1,1S30.4,42.4,29.8,42.4z"/>
	<path class="st0" d="M20.8,29.4L20.8,29.4c-2.5,0-5-0.8-7.1-2.2l-4.3,8.2h22.7l-4.3-8.2C25.8,28.6,23.3,29.4,20.8,29.4z"/>
	<path class="st0" d="M36,28.2l-5.9-3.1c-0.2,0.3-0.5,0.5-0.7,0.8l5.2,10c0,0,0,0,0,0c0,0.1,0.1,0.3,0.1,0.4c0,0,0,0,0,0v16
		c0,0.6-0.4,1-1,1h-26c-0.6,0-1-0.4-1-1v-16c0,0,0,0,0,0c0-0.1,0.1-0.3,0.1-0.4c0,0,0,0,0,0l5.2-10c-0.2-0.2-0.5-0.5-0.7-0.8
		l-5.9,3.1c-2.9,1.6-4.8,4.6-4.8,7.9v20.2c0,0.6,0.4,1,1,1h38c0.6,0,1-0.4,1-1V36.2C40.8,32.8,39,29.8,36,28.2z"/>
	<path class="st0" d="M14.9,9.1c0.3-0.7,1.2-1.1,2-0.7c0,0,0.1,0,0.1,0c2.4,1.2,5.2,1.2,7.6,0c0.7-0.4,1.6-0.1,2,0.6
		c0,0,0,0.1,0,0.1c1,2.2,2.6,4.1,4.6,5.5l0.1-2.2c0.2-5.8-4.3-10.8-10.1-11s-10.8,4.3-11,10.1c0,0.3,0,0.6,0,0.9l0.1,2.2
		C12.3,13.2,13.9,11.3,14.9,9.1z"/>
	<path class="st0" d="M25.1,10.4c-2.7,1.2-5.8,1.2-8.6,0c-1.4,2.7-3.5,4.9-6.1,6.5l0,0.5c0.2,5.6,4.8,10,10.4,9.9h0
		c5.6,0,10.2-4.4,10.4-9.9l0-0.5C28.6,15.4,26.5,13.1,25.1,10.4z"/>
</g>
</svg>
