<?xml version="1.0" encoding="utf-8"?>
<!-- Generator: Adobe Illustrator 27.8.1, SVG Export Plug-In . SVG Version: 6.00 Build 0)  -->
<svg version="1.1" id="icon_design" xmlns="http://www.w3.org/2000/svg" xmlns:xlink="http://www.w3.org/1999/xlink" x="0px"
	 y="0px" viewBox="0 0 474.2 367.8" style="enable-background:new 0 0 474.2 367.8;" xml:space="preserve">
<style type="text/css">
	.st0{fill:#287E5F;}
	.st1{fill:none;}
</style>
<g>
	<g>
		<path class="st0" d="M255.6,73.1c-0.1,7.1,2.6,15.5,9.1,21.8l12,12c5.1,5.1,11.9,7.7,18.6,7.7c6.7,0,13.5-2.6,18.6-7.7
			c5.1-5.2,7.7-11.9,7.7-18.7c0-6.7-2.5-13.5-7.7-18.6l-8.7-8.7c-3.9-4-10.4-4-14.3,0c-4,3.9-4,10.4,0,14.3h0l8.7,8.7
			c1.2,1.2,1.7,2.7,1.8,4.3c0,1.6-0.6,3.1-1.8,4.4c-1.1,1.1-2.6,1.7-4.2,1.7c-1.6,0-3.1-0.6-4.2-1.7l-12.1-12
			c-2.6-2.8-3-4.6-3.2-7.5c0-2.4,0.7-5.5,1.8-8.7c1.5-4.5,2.9-9.7,2.9-15.4c0.1-7.1-2.6-15.5-9.1-21.9l-12-12
			c-5.1-5.1-12-7.7-18.6-7.7c-6.7,0-13.5,2.6-18.6,7.8c-5.1,5-7.7,11.9-7.7,18.6c0,6.7,2.6,13.5,7.7,18.6l8.7,8.7
			c3.9,4,10.3,4,14.3,0c4-4,4-10.4,0-14.3l-8.7-8.7c-1.3-1.2-1.8-2.7-1.8-4.3c0-1.6,0.5-3.1,1.8-4.3c1.1-1.2,2.6-1.8,4.3-1.8
			c1.6,0,3.1,0.6,4.3,1.8l12,12c2.6,2.7,3,4.5,3.1,7.5c0,2.4-0.6,5.5-1.8,8.8C257,62.2,255.6,67.3,255.6,73.1z"/>
		<path class="st0" d="M403.1,174.2l-14.3-50.6c-2.9-10.1-13.3-16-23.4-13.1l-91.1,25.7c-10.1,2.8-16,13.3-13.1,23.4l14.2,50.3
			c-14.5,17.3-23,38.5-23.1,61.1c0,7.7,1,15.6,3.3,23.5c12.1,42.4,53.2,67.4,97,67.4h0.3c10.8,0,21.9-1.5,33-4.6
			c47.7-13.5,81.3-53.3,81.6-98.4c0-7.8-1.1-15.6-3.2-23.3C455.5,205.3,431.9,184,403.1,174.2z M317.2,151.8c4-7.2,13-9.7,20.1-5.7
			c7.1,4,9.7,13,5.7,20.1c-0.5,0.9-1.3,1.5-2,2.3l3.4,12.2c1.2,4.2-1.2,8.6-5.5,9.8c-0.7,0.2-1.4,0.3-2.1,0.3
			c-3.5,0-6.6-2.3-7.6-5.8l-3.4-12.2c-1-0.3-2-0.4-2.9-0.9C315.8,167.9,313.3,158.9,317.2,151.8z M375.5,320.8
			c-7.7,2.1-15.4,3.1-22.7,3.1c-30.4-0.1-54.5-16.7-60.8-39.8c-1.3-4.4-1.8-8.7-1.8-13.1c-0.1-10.5,3.7-21.4,10.5-31.3
			c9.2-13.5,24.1-25,43.4-30.5l0.1,0c7.6-2.2,15.2-3.2,22.6-3.2c11.1,0,21.3,2.3,30.2,6.3c15.4,6.9,26.6,18.9,30.7,33.5
			c1.2,4.3,1.8,8.7,1.8,13C429.7,283.9,409,311.4,375.5,320.8z"/>
		<path class="st0" d="M122.2,269.1h0.3c23.3,0,46.5-8.4,63.9-25.7c17.5-17.4,25.8-40.8,25.7-64.2c0-6.4-0.7-12.8-1.9-19.2
			l37.1-37.1c3.6-3.6,5.6-8.4,5.6-13.4c0-5.1-2-9.9-5.6-13.4l-67-67c-7.4-7.4-19.4-7.4-26.8,0l-37.1,37c-6.4-1.2-12.8-1.9-19.3-1.9
			c-23.4-0.1-46.8,8.3-64.2,25.8c-17.4,17.4-25.8,40.7-25.7,64.1c0,28.5,12,57.7,34.6,80.4C64.5,257.2,93.6,269.1,122.2,269.1z
			 M164.6,101l9-9c-0.2-1-0.6-1.9-0.6-3c0-8.1,6.6-14.8,14.8-14.8c8.2,0,14.8,6.6,14.8,14.8c0,8.2-6.6,14.8-14.8,14.8
			c-1,0-2-0.4-2.9-0.6l-9,9c-1.5,1.5-3.6,2.3-5.6,2.3c-2,0-4-0.8-5.6-2.3C161.6,109.1,161.6,104.1,164.6,101z M59.8,116.9
			c9.7-9.7,22.5-14.6,37.3-14.6c2,0,4,0.4,6,0.6c16.2,1.5,33.5,8.8,47.5,22.9c14,14,21.3,31.2,22.8,47.5c0.2,2,0.6,4.1,0.6,6.1
			c-0.1,14.7-5,27.6-14.6,37.3c-9.7,9.6-22.6,14.5-37.3,14.6c-17.8,0-37.8-7.7-53.5-23.5c-15.8-15.8-23.5-35.7-23.5-53.5
			C45.3,139.5,50.2,126.6,59.8,116.9z"/>
	</g>
	<rect x="-22.9" y="-79.1" class="st1" width="512" height="512"/>
</g>
</svg>
