<?xml version="1.0" encoding="utf-8"?>
<!-- Generator: Adobe Illustrator 27.8.1, SVG Export Plug-In . SVG Version: 6.00 Build 0)  -->
<svg version="1.1" id="Layer_1" xmlns="http://www.w3.org/2000/svg" xmlns:xlink="http://www.w3.org/1999/xlink" x="0px" y="0px"
	 viewBox="0 0 33.1 44" style="enable-background:new 0 0 33.1 44;" xml:space="preserve">
<style type="text/css">
	.st0{fill:#287E5F;}
</style>
<g>
	<path class="st0" d="M32,4.5v-3C32,1.2,31.8,1,31.5,1h-12L6.4,0.8H1.5C1.2,0.9,1,1.1,1,1.4v18.5v19.8v3c0,0.3,0.2,0.5,0.5,0.5h12
		l13,0h5c0.3,0,0.5-0.2,0.5-0.5V24.3L32,4.5z M31,42.3H2V1.9h29V42.3z"/>
	<path class="st0" d="M12,11.8l-0.1-0.6c1-0.9,1.7-2.4,1.7-3.8c0-1.9-1.3-3.1-3.5-3.1S6.6,5.5,6.6,7.4c0,1.4,0.7,2.9,1.7,3.8v0.6
		c-2,0.5-3.4,1.7-3.4,3.2c0,1.3,1.1,2.4,2.5,2.4h5.5c1.3,0,2.5-1.1,2.5-2.4l0,0C15.3,13.5,14,12.3,12,11.8z M10.1,12.9
		c-0.3,0-0.9-0.1-0.9-0.5v-0.6C9.5,11.9,9.7,12,10,12s0.6-0.1,0.8-0.2v0.6C11,12.8,10.4,12.9,10.1,12.9z"/>
	<path class="st0" d="M28.1,5.2V8c0,0.3-0.2,0.5-0.5,0.5h-9.5c-0.3,0-0.5-0.2-0.5-0.5V5.2c0-0.3,0.2-0.5,0.5-0.5h9.5
		C27.8,4.7,28.1,4.9,28.1,5.2z"/>
	<path class="st0" d="M18.1,10.8h9.5c0.3,0,0.5-0.2,0.5-0.5s-0.2-0.5-0.5-0.5h-9.5c-0.3,0-0.5,0.2-0.5,0.5S17.8,10.8,18.1,10.8z"/>
	<path class="st0" d="M18.1,12.8h9.5c0.3,0,0.5-0.2,0.5-0.5s-0.2-0.5-0.5-0.5h-9.5c-0.3,0-0.5,0.2-0.5,0.5S17.8,12.8,18.1,12.8z"/>
	<path class="st0" d="M18.1,14.8h9.5c0.3,0,0.5-0.2,0.5-0.5s-0.2-0.5-0.5-0.5h-9.5c-0.3,0-0.5,0.2-0.5,0.5S17.8,14.8,18.1,14.8z"/>
	<path class="st0" d="M18.1,16.7h5.5c0.3,0,0.5-0.2,0.5-0.5s-0.2-0.5-0.5-0.5h-5.5c-0.3,0-0.5,0.2-0.5,0.5S17.8,16.7,18.1,16.7z"/>
	<path class="st0" d="M27.6,19.5H5.7c-0.3,0-0.5,0.2-0.5,0.5s0.2,0.5,0.5,0.5h21.9c0.3,0,0.5-0.2,0.5-0.5S27.9,19.5,27.6,19.5z"/>
	<path class="st0" d="M27.6,21.8H5.7c-0.3,0-0.5,0.2-0.5,0.5s0.2,0.5,0.5,0.5h21.9c0.3,0,0.5-0.2,0.5-0.5S27.9,21.8,27.6,21.8z"/>
	<path class="st0" d="M27.6,24.1H5.7c-0.3,0-0.5,0.2-0.5,0.5s0.2,0.5,0.5,0.5h21.9c0.3,0,0.5-0.2,0.5-0.5S27.9,24.1,27.6,24.1z"/>
	<path class="st0" d="M14.8,26.3H5.7c-0.3,0-0.5,0.2-0.5,0.5s0.2,0.5,0.5,0.5h9.1c0.3,0,0.5-0.2,0.5-0.5S15.1,26.3,14.8,26.3z"/>
	<path class="st0" d="M14.8,28.6H5.7c-0.3,0-0.5,0.2-0.5,0.5s0.2,0.5,0.5,0.5h9.1c0.3,0,0.5-0.2,0.5-0.5S15.1,28.6,14.8,28.6z"/>
	<path class="st0" d="M14.8,30.9H5.7c-0.3,0-0.5,0.2-0.5,0.5s0.2,0.5,0.5,0.5h9.1c0.3,0,0.5-0.2,0.5-0.5S15.1,30.9,14.8,30.9z"/>
	<path class="st0" d="M14.8,33.2H5.7c-0.3,0-0.5,0.2-0.5,0.5s0.2,0.5,0.5,0.5h9.1c0.3,0,0.5-0.2,0.5-0.5S15.1,33.2,14.8,33.2z"/>
	<path class="st0" d="M14.8,35.5H5.7c-0.3,0-0.5,0.2-0.5,0.5s0.2,0.5,0.5,0.5h9.1c0.3,0,0.5-0.2,0.5-0.5S15.1,35.5,14.8,35.5z"/>
	<path class="st0" d="M14.8,37.8H5.7c-0.3,0-0.5,0.2-0.5,0.5s0.2,0.5,0.5,0.5h9.1c0.3,0,0.5-0.2,0.5-0.5S15.1,37.8,14.8,37.8z"/>
	<path class="st0" d="M27.1,31.6c0.1-0.7,1-2,1.3-2.4c0.1-0.2,0.1-0.4,0-0.6l-0.8-1.2c-0.1-0.2-0.3-0.3-0.5-0.2
		c-1.8,0.4-3,0.2-3.9-0.6c-0.2-0.2-0.5-0.2-0.7,0c-0.9,0.8-2.1,1-3.9,0.6c-0.2,0-0.4,0-0.5,0.2l-0.8,1.2c-0.1,0.2-0.1,0.4,0,0.6
		c0.3,0.4,1.2,1.7,1.3,2.4c0.1,0.8-0.2,1.5-0.6,2.2c-0.5,0.9-0.9,1.8-0.6,2.9c0.4,1.3,1.8,1.9,3.1,2.5c0.7,0.3,1.5,0.6,2,1.1
		c0.1,0.1,0.2,0.1,0.3,0.1c0.1,0,0.2,0,0.3-0.1c0.5-0.4,1.3-0.8,2-1.1c1.3-0.6,2.7-1.2,3.1-2.5c0.4-1.1-0.1-2-0.6-2.9
		C27.3,33.1,27,32.4,27.1,31.6z M20.1,30.8c0.1-0.2,0.2-0.3,0.4-0.3l1.3-0.2l0.6-1.2c0.2-0.3,0.7-0.3,0.9,0l0.6,1.2l1.3,0.2
		c0.2,0,0.3,0.2,0.4,0.3s0,0.4-0.1,0.5l-1,0.9l0.2,1.3c0,0.2,0,0.4-0.2,0.5c-0.1,0.1-0.2,0.1-0.3,0.1S24,34.1,24,34l-1.1-0.6
		L21.7,34c-0.2,0.1-0.4,0.1-0.5,0C21,33.9,21,33.7,21,33.5l0.2-1.3l-0.9-0.9C20.1,31.1,20,30.9,20.1,30.8z M25.6,36.6
		c-0.9,0.4-1.8,0.6-2.8,0.6S20.9,37,20,36.6c-0.3-0.1-0.4-0.4-0.2-0.7c0.1-0.2,0.4-0.4,0.7-0.2c1.5,0.7,3.2,0.7,4.7,0
		c0.2-0.1,0.5,0,0.7,0.2C26,36.2,25.8,36.5,25.6,36.6z"/>
</g>
</svg>
