<?xml version="1.0" encoding="utf-8"?>
<!-- Generator: Adobe Illustrator 27.7.0, SVG Export Plug-In . SVG Version: 6.00 Build 0)  -->
<svg version="1.1" id="Glyph" xmlns="http://www.w3.org/2000/svg" xmlns:xlink="http://www.w3.org/1999/xlink" x="0px" y="0px"
	 viewBox="0 0 48 36" style="enable-background:new 0 0 48 36;" xml:space="preserve">
<style type="text/css">
	.st0{fill:#287E5F;}
</style>
<g>
	<path class="st0" d="M39,19.8c-4.3,0-7.8,3.5-7.8,7.8s3.5,7.8,7.8,7.8c0.4,0,0.8-0.3,0.8-0.8s-0.3-0.8-0.8-0.8
		c-3.4,0-6.2-2.8-6.2-6.2s2.8-6.2,6.2-6.2s6.2,2.8,6.2,6.2v2c0,0.7-0.6,1.2-1.2,1.2s-1.2-0.6-1.2-1.2v-5c0-0.4-0.3-0.8-0.8-0.8
		s-0.8,0.3-0.8,0.8v0c-0.6-0.5-1.4-0.8-2.2-0.8c-2.1,0-3.8,1.7-3.8,3.8s1.7,3.8,3.8,3.8c0.9,0,1.7-0.3,2.4-0.9
		c0.4,1.1,1.4,1.9,2.6,1.9c1.5,0,2.8-1.2,2.8-2.8v-2C46.8,23.2,43.3,19.8,39,19.8z M39,29.8c-1.2,0-2.2-1-2.2-2.2s1-2.2,2.2-2.2
		s2.2,1,2.2,2.2S40.2,29.8,39,29.8z"/>
	<path class="st0" d="M34.3,19.5c1.4-0.8,3-1.3,4.7-1.3c1.3,0,2.6,0.3,3.8,0.8V5.9l-13.5,9.4L34.3,19.5z"/>
	<path class="st0" d="M23.9,17.2l18.7-13c-0.6-2-2.4-3.5-4.6-3.5H6c-2.2,0-4,1.5-4.6,3.5l18.7,13C21.3,18,22.7,18,23.9,17.2z"/>
	<path class="st0" d="M33,20.4L28,16.2c0,0-3.3,2.3-3.3,2.3c-1.6,1.1-3.8,1.1-5.4,0L16,16.2l-13,11c0.8,0.7,1.9,1.1,3,1.1h23.8
		c0-0.2,0-0.5,0-0.8C29.8,24.7,31,22.1,33,20.4z"/>
	<path class="st0" d="M1.2,5.9v17.6c0,0.9,0.3,1.8,0.7,2.5l12.8-10.7L1.2,5.9z"/>
</g>
</svg>
