<?xml version="1.0" encoding="utf-8"?>
<!-- Generator: Adobe Illustrator 27.7.0, SVG Export Plug-In . SVG Version: 6.00 Build 0)  -->
<svg version="1.1" id="Layer_1" xmlns="http://www.w3.org/2000/svg" xmlns:xlink="http://www.w3.org/1999/xlink" x="0px" y="0px"
	 viewBox="0 0 42.6 42.2" style="enable-background:new 0 0 42.6 42.2;" xml:space="preserve">
<style type="text/css">
	.st0{fill:#287E5F;}
</style>
<g transform="matrix(1,0,0,1,-116,-10)">
	<g transform="matrix(1,0,0,1,19.9998,-25.9999)">
		<g id="Communication_Icons">
			<path class="st0" d="M125.1,68.3c-0.5,0.1-1,0.2-1.6,0.2c-4.4,0-9.9-4.2-13.1-8.1c-3.3-3.9-4.9-8-4.3-11.1c0-0.1,1.4-3.6,4.5-3.6
				c0.2,0,0.4,0,0.6,0c0.1,0,1.3,0.3,1.6,1.3l1.7,5.2l-0.1,0.1c0,0,0,0.1,0,0.1l-2.2,2.3l0.3,0.5c0.7,1.4,2.7,4.8,6.5,6.5l0.5,0.2
				l1.9-1.9c0.1-0.1,0.3-0.1,0.4-0.1l5.7,1.4c0,0,1.3,0.4,1.3,1.9C128.8,64.3,128.6,66.8,125.1,68.3 M136.2,46.2
				c-0.6-3.5-4.4-7.3-7.9-7.9c-7.3-1.1-14.6-1.1-21.9,0c-3.5,0.6-7.3,4.4-7.9,7.9c-1.1,7.3-1.1,14.6,0,21.9c0.6,3.5,4.4,7.3,7.9,7.9
				c7.3,1.1,14.6,1.1,21.9,0c3.5-0.6,7.3-4.4,7.9-7.9C137.3,60.7,137.3,53.5,136.2,46.2"/>
		</g>
	</g>
</g>
</svg>
