<?xml version="1.0" encoding="UTF-8"?>
<svg id="Layer_1" data-name="Layer 1" xmlns="http://www.w3.org/2000/svg" viewBox="0 0 24.01 3.61">
  <defs>
    <style>
      .cls-1 {
        fill: #fff;
      }

      .cls-2 {
        stroke: #019330;
      }

      .cls-2, .cls-3, .cls-4 {
        fill: none;
        stroke-miterlimit: 10;
        stroke-width: .25px;
      }

      .cls-5 {
        fill: #0eaf4c;
      }

      .cls-6 {
        fill: #dce987;
      }

      .cls-7 {
        fill: #019330;
      }

      .cls-3 {
        stroke: #dce987;
      }

      .cls-4 {
        stroke: #0eaf4c;
      }
    </style>
  </defs>
  <circle class="cls-6" cx="17.19" cy="1.82" r="1.4"/>
  <circle class="cls-1" cx="17.19" cy="1.82" r=".32"/>
  <line class="cls-3" x1="18.48" y1="1.82" x2="20.83" y2="1.82"/>
  <g>
    <circle class="cls-6" cx="22.23" cy="1.82" r="1.4"/>
    <circle class="cls-1" cx="22.23" cy="1.82" r=".32"/>
  </g>
  <circle class="cls-7" cx="1.74" cy="1.8" r="1.4"/>
  <g id="Check_-_Orange" data-name="Check - Orange">
    <polygon class="cls-1" points="2.42 1.42 2.17 1.11 1.56 1.86 1.3 1.54 1.05 1.85 1.56 2.48 1.56 2.48 1.56 2.48 2.42 1.42"/>
  </g>
  <circle class="cls-5" cx="6.88" cy="1.82" r="1.4"/>
  <circle class="cls-5" cx="12.03" cy="1.78" r="1.4"/>
  <line class="cls-3" x1="13.44" y1="1.82" x2="15.79" y2="1.82"/>
  <line class="cls-4" x1="8.28" y1="1.78" x2="10.63" y2="1.78"/>
  <line class="cls-2" x1="3.13" y1="1.78" x2="5.48" y2="1.78"/>
  <circle class="cls-1" cx="6.88" cy="1.81" r=".32"/>
  <circle class="cls-1" cx="12.04" cy="1.78" r=".32"/>
</svg>