<?xml version="1.0" encoding="utf-8"?>
<!-- Generator: Adobe Illustrator 27.8.1, SVG Export Plug-In . SVG Version: 6.00 Build 0)  -->
<svg version="1.1" id="Layer_1" xmlns="http://www.w3.org/2000/svg" xmlns:xlink="http://www.w3.org/1999/xlink" x="0px" y="0px"
	 viewBox="0 0 32 25.3" style="enable-background:new 0 0 32 25.3;" xml:space="preserve">
<style type="text/css">
	.st0{fill:#287E5F;}
</style>
<g>
	<path class="st0" d="M29.7,5.6c1.1-1.2,1-3.1-0.2-4.2s-3.1-1-4.2,0.2c-1,1.1-1,2.9,0,4c-1.5,0.8-2.4,2.3-2.3,4c0,0.6,0.4,1,1,1h7
		c0.6,0,1-0.4,1-1C32.1,8,31.2,6.4,29.7,5.6z"/>
	<path class="st0" d="M21,9.6c0,0.3,0,0.6,0.1,0.8L13,14.5L0.4,8.2c0.5-1,1.5-1.6,2.6-1.6h18.6C21.2,7.6,21,8.6,21,9.6z"/>
	<path class="st0" d="M26,12.6v9c0,1.7-1.3,3-3,3H3c-1.7,0-3-1.3-3-3V10.2l12.6,6.3c0.3,0.1,0.6,0.1,0.9,0l8.8-4.4
		c0.5,0.3,1.1,0.5,1.7,0.5H26z"/>
</g>
</svg>
