<?xml version="1.0" encoding="utf-8"?>
<!-- Generator: Adobe Illustrator 27.8.1, SVG Export Plug-In . SVG Version: 6.00 Build 0)  -->
<svg version="1.1" id="Layer_1" xmlns="http://www.w3.org/2000/svg" xmlns:xlink="http://www.w3.org/1999/xlink" x="0px" y="0px"
	 viewBox="0 0 21.9 20.3" style="enable-background:new 0 0 21.9 20.3;" xml:space="preserve">
<style type="text/css">
	.st0{fill:none;}
	.st1{fill:#287E5F;}
</style>
<path class="st0" d="M-1.4-2.5h24v24h-24V-2.5z"/>
<g>
	<path class="st1" d="M20.4,10.5c-2.7-1.9-6.4-1.3-8.4,1.4c-1.4,1.9-1.5,4.5-0.3,6.5H1.4c-0.6,0-1-0.4-1-1v-16c0-0.6,0.4-1,1-1h7.4
		l2,2h8.6c0.6,0,1,0.4,1,1C20.4,3.4,20.4,10.5,20.4,10.5z M16.4,14.4v-3.5l5,4.5l-5,4.5v-3.5h-3v-2H16.4z"/>
</g>
</svg>
